<svg xmlns="http://www.w3.org/2000/svg" viewBox="0 0 985.96 860.81"><defs><style>.cls-1{fill:#d1d3d4;}.cls-2{fill:#e6e7e8;}.cls-3{fill:#f7941e;}.cls-4{fill:#00aeef;}.cls-5,.cls-9{fill:#231f20;}.cls-5{opacity:0.2;}.cls-6{fill:#414042;}.cls-7{fill:#00839c;}.cls-8{fill:#f26351;}.cls-9{opacity:0.1;}.cls-10{fill:#fff271;}</style></defs><title>badminton</title><g id="Layer_2" data-name="Layer 2"><g id="Layer_1-2" data-name="Layer 1"><g id="Racket"><g id="Racket-2" data-name="Racket"><g id="Racket-3" data-name="Racket"><rect class="cls-1" x="240.53" y="495.86" width="341.33" height="9.86" transform="translate(-233.1 569.73) rotate(-56.72)"/><rect class="cls-2" x="709.08" y="-27.25" width="3.1" height="151.84" transform="translate(279.84 615.93) rotate(-56.7)"/><rect class="cls-2" x="700.25" y="-31.28" width="3.1" height="181.32" transform="matrix(0.55, -0.84, 0.84, 0.55, 266.93, 613.4)"/><rect class="cls-2" x="689.74" y="-34.98" width="3.1" height="213.11" transform="translate(251.98 610.11) rotate(-56.71)"/><rect class="cls-2" x="679.92" y="-33.51" width="3.1" height="244.01" transform="translate(233.42 609.53) rotate(-56.71)"/><polygon class="cls-2" points="780.83 173.47 558.55 27.49 556.85 30.08 779.13 176.06 780.83 173.47"/><rect class="cls-2" x="660.22" y="-19.62" width="3.1" height="276.64" transform="translate(199.28 606.69) rotate(-56.71)"/><rect class="cls-2" x="646.1" y="-14.42" width="3.1" height="299.83" transform="translate(178.88 602.46) rotate(-56.71)"/><polygon class="cls-2" points="766.33 239.43 508.02 69.8 506.31 72.39 764.62 242.03 766.33 239.43"/><rect class="cls-2" x="622.94" y="24.63" width="3.1" height="309.03" transform="translate(131.94 602.8) rotate(-56.71)"/><rect class="cls-2" x="610.41" y="43.7" width="3.1" height="309.03" transform="translate(110.35 600.92) rotate(-56.71)"/><polygon class="cls-2" points="731.82 297.21 473.5 127.56 471.8 130.16 730.11 299.79 731.82 297.21"/><rect class="cls-2" x="590.28" y="80.53" width="3.1" height="309.03" transform="translate(70.48 600.7) rotate(-56.71)"/><rect class="cls-2" x="572.75" y="103.51" width="3.1" height="301.04" transform="translate(46.71 594.62) rotate(-56.71)"/><rect class="cls-2" x="561.3" y="130.49" width="3.1" height="286.64" transform="translate(25.01 593.98) rotate(-56.71)"/><rect class="cls-2" x="546.93" y="166.84" width="3.1" height="254.38" transform="translate(1.63 591.08) rotate(-56.71)"/><polygon class="cls-2" points="623.45 374.45 444.82 257.13 443.11 259.71 621.76 377.04 623.45 374.45"/><polygon class="cls-2" points="590.85 381 454.58 291.52 452.88 294.11 589.14 383.59 590.85 381"/><rect class="cls-2" x="416.67" y="194.09" width="386.87" height="3.47" transform="translate(111.46 598.22) rotate(-56.7)"/><polygon class="cls-2" points="524.57 371.07 521.67 369.16 734.03 45.78 736.94 47.7 524.57 371.07"/><rect class="cls-2" x="463.01" y="220.05" width="373.45" height="3.47" transform="translate(107.62 643.05) rotate(-56.7)"/><rect class="cls-2" x="493.14" y="231.72" width="353.58" height="3.48" transform="translate(107.06 665.29) rotate(-56.71)"/><rect class="cls-2" x="526.33" y="244.34" width="323.87" height="3.48" transform="translate(105.18 686.85) rotate(-56.76)"/><rect class="cls-2" x="570.94" y="254.32" width="276.83" height="3.48" transform="translate(106.37 709) rotate(-56.76)"/><rect class="cls-2" x="630.21" y="268.17" width="197.39" height="3.47" transform="translate(103.12 730.93) rotate(-56.7)"/><rect class="cls-2" x="400.41" y="175.32" width="386.88" height="3.48" transform="translate(119.16 575.39) rotate(-56.6)"/><rect class="cls-2" x="386.74" y="161.87" width="373.45" height="3.48" transform="translate(122.19 553.47) rotate(-56.75)"/><rect class="cls-2" x="377.94" y="147.98" width="353.59" height="3.47" transform="translate(125.09 531.23) rotate(-56.71)"/><polygon class="cls-2" points="445.52 272.31 448.42 274.22 626.21 3.5 623.3 1.6 445.52 272.31"/><rect class="cls-2" x="379.92" y="120.78" width="276.82" height="3.48" transform="translate(131.74 488.89) rotate(-56.76)"/><rect class="cls-2" x="399.16" y="108.35" width="197.39" height="3.47" transform="translate(132.51 465.75) rotate(-56.7)"/><path class="cls-3" d="M501,364.1c-77.13-50.65-89.65-168.33-27.91-262.34S647.75-27.51,724.88,23.15s89.64,168.32,27.91,262.33S578.08,414.75,501,364.1ZM715,38.22C646.16-7,544.39,26,488.12,111.66S442,303.84,510.86,349s170.58,12.24,226.86-73.45S783.79,83.41,715,38.22Z"/><path class="cls-4" d="M216,847.77a28.86,28.86,0,0,1-40,8.29h0a28.88,28.88,0,0,1-8.28-40L281.13,643.32a28.88,28.88,0,0,1,40-8.29h0a28.89,28.89,0,0,1,8.29,40Z"/><path class="cls-5" d="M324,637.23,179.12,857.83A28.85,28.85,0,0,0,216,847.77L329.41,675A28.86,28.86,0,0,0,324,637.23Z"/><rect class="cls-6" x="402.12" y="321.89" width="9.86" height="341.33" transform="translate(-215.56 348.82) rotate(-37.43)"/><rect class="cls-2" x="3.4" y="58.96" width="151.84" height="3.1" transform="translate(-20.44 60.62) rotate(-37.4)"/><rect class="cls-2" x="-4.15" y="70.83" width="181.32" height="3.1" transform="translate(-26.18 67.43) rotate(-37.4)"/><rect class="cls-2" x="-12.01" y="84.78" width="213.11" height="3.1" transform="translate(-33 75.18) rotate(-37.4)"/><rect class="cls-2" x="-14.74" y="99.65" width="244.01" height="3.09" transform="translate(-39.41 85.97) rotate(-37.41)"/><polygon class="cls-2" points="220.31 35.49 9.06 197.04 10.94 199.5 222.19 37.96 220.31 35.49"/><rect class="cls-2" x="-9.05" y="128.22" width="276.63" height="3.1" transform="translate(-52.25 105.21) rotate(-37.41)"/><rect class="cls-2" x="-9.47" y="147.09" width="299.84" height="3.1" transform="translate(-61.41 115.88) rotate(-37.41)"/><rect class="cls-2" x="1.46" y="164.53" width="309.03" height="3.1" transform="translate(-68.81 128.9) rotate(-37.41)"/><polygon class="cls-2" points="295.79 89.84 50.31 277.56 52.19 280.02 297.67 92.31 295.79 89.84"/><rect class="cls-2" x="33.33" y="201.51" width="309.03" height="3.1" transform="translate(-84.72 155.87) rotate(-37.41)"/><rect class="cls-2" x="44.57" y="216.2" width="309.03" height="3.1" transform="translate(-91.33 165.71) rotate(-37.4)"/><rect class="cls-2" x="61.43" y="232.69" width="309.03" height="3.1" transform="translate(-97.88 179.34) rotate(-37.4)"/><polygon class="cls-2" points="346.7 164.39 107.56 347.25 109.45 349.71 348.59 166.85 346.7 164.39"/><rect class="cls-2" x="99.65" y="272.85" width="286.64" height="3.1" transform="translate(-116.72 204.01) rotate(-37.4)"/><rect class="cls-2" x="130.1" y="293.09" width="254.38" height="3.1" transform="translate(-126.07 216.88) rotate(-37.4)"/><polygon class="cls-2" points="357.97 250.46 188.2 380.29 190.08 382.75 359.86 252.92 357.97 250.46"/><rect class="cls-2" x="208.07" y="332.6" width="163.01" height="3.1" transform="translate(-143.43 244.62) rotate(-37.41)"/><polygon class="cls-2" points="303.86 356.62 301.1 358.73 66.09 51.41 68.85 49.3 303.86 356.62"/><polygon class="cls-2" points="322.1 342.68 319.34 344.79 84.33 37.47 87.1 35.35 322.1 342.68"/><rect class="cls-2" x="220.84" y="-11.52" width="3.47" height="373.45" transform="translate(-60.65 171.12) rotate(-37.38)"/><rect class="cls-2" x="238.52" y="-16.8" width="3.48" height="353.59" transform="translate(-47.76 179.12) rotate(-37.46)"/><rect class="cls-2" x="256.5" y="-15.07" width="3.47" height="323.87" transform="translate(-36.13 186.94) rotate(-37.38)"/><rect class="cls-2" x="272.88" y="-8.15" width="3.48" height="276.83" transform="translate(-22.64 193.65) rotate(-37.41)"/><rect class="cls-2" x="292.42" y="17.7" width="3.48" height="197.38" transform="translate(-10.11 202.97) rotate(-37.47)"/><rect class="cls-2" x="160.15" y="19.72" width="3.48" height="386.88" transform="translate(-96.19 142.15) rotate(-37.4)"/><rect class="cls-2" x="140.72" y="41.23" width="3.48" height="373.45" transform="translate(-109.19 133.45) rotate(-37.41)"/><rect class="cls-2" x="121.42" y="64.24" width="3.48" height="353.59" transform="translate(-121.23 124.66) rotate(-37.47)"/><rect class="cls-2" x="104.04" y="93.01" width="3.48" height="323.87" transform="translate(-133.06 116.58) rotate(-37.38)"/><polygon class="cls-2" points="168.15 377.41 170.92 375.3 2.76 155.4 0 157.51 168.15 377.41"/><polygon class="cls-2" points="125.52 361.07 128.28 358.96 8.38 202.17 5.62 204.28 125.52 361.07"/><path class="cls-7" d="M307.72,362.66c-73.29,56-188.5,29-256.82-60.38s-64.26-207.61,9-263.66S248.44,9.66,316.75,99,381,306.61,307.72,362.66ZM70.88,52.94C5.49,103,3,209.9,65.22,291.33s166.15,107,231.54,57,67.94-156.95,5.67-238.39S136.28,2.94,70.88,52.94Z"/><path class="cls-8" d="M670,791.51A28.87,28.87,0,0,1,664.61,832h0a28.87,28.87,0,0,1-40.48-5.4L498.58,662.42a28.89,28.89,0,0,1,5.4-40.49h0a28.87,28.87,0,0,1,40.47,5.4Z"/><path class="cls-5" d="M507,619.94,667.32,829.6A28.86,28.86,0,0,0,670,791.51L544.45,627.33A28.86,28.86,0,0,0,507,619.94Z"/></g><g id="Shuttlecock"><path class="cls-2" d="M803,446.83l-6.46,7.77a23.11,23.11,0,1,0,35.55,29.55l6.47-7.78Z"/><polygon class="cls-2" points="863.57 447.56 865.4 449.5 836.5 476.65 834.67 474.71 863.57 447.56"/><path class="cls-2" d="M846.45,465.48s77-34.91,136.51-83.4l3-48.44Z"/><path class="cls-1" d="M846.45,465.48,986,333.64h0l-49.76,1.62C885,391.78,846.45,465.48,846.45,465.48Z"/><rect class="cls-2" x="820.94" y="451.04" width="39.65" height="2.67" transform="translate(-53.58 786.54) rotate(-48.77)"/><path class="cls-2" d="M837.52,456.08s73.26-42.15,127.86-96.14l-1.66-48.51Z"/><path class="cls-1" d="M837.52,456.08l126.2-144.65h0l-49.38,6.4C868.84,379,837.52,456.08,837.52,456.08Z"/><rect class="cls-2" x="811.4" y="445.17" width="39.65" height="2.67" transform="translate(-43.64 799.94) rotate(-50.24)"/><path class="cls-2" d="M828.09,450.29s72.12-44.07,125.27-99.48l-2.94-48.45Z"/><path class="cls-1" d="M828.09,450.29,950.42,302.36h0l-49.2,7.71C857.36,372.42,828.09,450.29,828.09,450.29Z"/><rect class="cls-2" x="803.36" y="438.48" width="39.66" height="2.67" transform="translate(-40.11 794.49) rotate(-50.45)"/><path class="cls-2" d="M820.05,443.61s72-44.29,125-99.86l-3.1-48.44Z"/><path class="cls-1" d="M820.05,443.61l121.88-148.3h0l-49.17,7.85C849.09,365.65,820.05,443.61,820.05,443.61Z"/><rect class="cls-2" x="797.79" y="431.79" width="39.65" height="2.67" transform="translate(-18.69 828.95) rotate(-53.24)"/><path class="cls-2" d="M814.67,437.06s69.69-47.83,119.82-106L929,282.85Z"/><path class="cls-1" d="M814.67,437.06,929,282.85h0l-48.71,10.31C839.77,357.76,814.67,437.06,814.67,437.06Z"/><path class="cls-9" d="M798.37,486.05l21.18-25.49L803,446.83l-6.46,7.77A23.1,23.1,0,0,0,798.37,486.05Z"/></g><g id="Ball"><path class="cls-10" d="M774.84,483.75A62.67,62.67,0,1,1,735,404.6,62.65,62.65,0,0,1,774.84,483.75Z"/><path class="cls-2" d="M759.56,485.43c-12.37-2.25-24.22-13.42-36.26-34.14-6.85-11.78-16.35-19.22-28.26-22.1-11.68-2.83-23.68-.71-33.3,2.44a63.94,63.94,0,0,0-5.91,12.81c-.11.39-.22.76-.34,1.15,8.67-4.07,23.47-9.32,37-6,9,2.17,16.2,7.91,21.54,17.09,12.31,21.19,24.58,33.4,38.24,37.92a40,40,0,0,0,5.33,1.35,39.16,39.16,0,0,0,11.46.36,62.43,62.43,0,0,0,5.56-12A31.38,31.38,0,0,1,759.56,485.43Z"/><path class="cls-9" d="M774.84,483.75A62.65,62.65,0,0,0,735,404.6l-39.31,119A62.65,62.65,0,0,0,774.84,483.75Z"/><path class="cls-10" d="M725.65,628.38a62.67,62.67,0,1,1-39.85-79.16A62.68,62.68,0,0,1,725.65,628.38Z"/><path class="cls-2" d="M710.36,630.06c-12.37-2.25-24.22-13.42-36.26-34.14-6.85-11.79-16.35-19.22-28.25-22.1-11.69-2.83-23.69-.71-33.3,2.44a62.85,62.85,0,0,0-5.91,12.81c-.12.38-.23.76-.35,1.15,8.67-4.07,23.47-9.32,37.05-6,9,2.16,16.2,7.91,21.54,17.09,12.31,21.19,24.59,33.4,38.25,37.91a38.84,38.84,0,0,0,16.78,1.72,62.71,62.71,0,0,0,5.56-12A31.63,31.63,0,0,1,710.36,630.06Z"/><path class="cls-9" d="M725.65,628.38a62.68,62.68,0,0,0-39.85-79.16l-39.31,119A62.68,62.68,0,0,0,725.65,628.38Z"/><path class="cls-10" d="M877.29,603.64a62.66,62.66,0,1,1-39.84-79.16A62.66,62.66,0,0,1,877.29,603.64Z"/><path class="cls-2" d="M862,605.32c-12.38-2.25-24.23-13.42-36.27-34.14-6.85-11.79-16.35-19.22-28.26-22.1-11.68-2.83-23.68-.71-33.29,2.44a62.32,62.32,0,0,0-5.91,12.81c-.13.38-.23.76-.35,1.14,8.67-4.06,23.47-9.31,37-6,9,2.18,16.21,7.92,21.53,17.1,12.32,21.19,24.59,33.4,38.26,37.91a38.84,38.84,0,0,0,16.78,1.72,62.43,62.43,0,0,0,5.56-12A31.48,31.48,0,0,1,862,605.32Z"/><path class="cls-9" d="M877.29,603.64a62.66,62.66,0,0,0-39.84-79.16l-39.31,119A62.66,62.66,0,0,0,877.29,603.64Z"/></g></g></g></g></g></svg>