<svg xmlns="http://www.w3.org/2000/svg" viewBox="0 0 964.3 918.64"><defs><style>.cls-1,.cls-4,.cls-6{fill:#c30;}.cls-1,.cls-2,.cls-3{stroke:#f63;stroke-miterlimit:10;stroke-width:0.2px;}.cls-1,.cls-10,.cls-14,.cls-15,.cls-16,.cls-17,.cls-19,.cls-2,.cls-20,.cls-21,.cls-22,.cls-23,.cls-3,.cls-4{fill-rule:evenodd;}.cls-14,.cls-2{fill:#f63;}.cls-3{fill:#fa794d;}.cls-5{fill:#0e3759;}.cls-10,.cls-12,.cls-7{fill:#fff;}.cls-10,.cls-7{opacity:0.4;}.cls-20,.cls-8{fill:#f93;}.cls-9{fill:#00a79d;}.cls-11{opacity:0.1;}.cls-13{fill:#ccc;}.cls-15{fill:#fbb040;}.cls-16,.cls-18{fill:#606;}.cls-17{fill:#f66;}.cls-19{fill:#fc0;}.cls-21{fill:#b45d27;}.cls-22{fill:#e6e7e8;}.cls-23{fill:#033;}</style></defs><title>basketball</title><g id="Layer_2" data-name="Layer 2"><g id="Layer_1-2" data-name="Layer 1"><g id="Basketball"><g id="Basketball-2" data-name="Basketball"><g id="Basketball-3" data-name="Basketball"><path class="cls-1" d="M152.38,918.54c83.85,0,152.28-68.42,152.28-152.24S236.23,614.05,152.38,614.05.1,682.47.1,766.3,68.54,918.54,152.38,918.54Z"/><path class="cls-2" d="M152.38,910.65c79.44,0,144.39-64.93,144.39-144.35,0-79.61-64.95-144.55-144.39-144.55C72.76,621.75,7.81,686.69,7.81,766.3c0,79.42,65,144.35,144.57,144.35Z"/><path class="cls-3" d="M153.3,892.86c73.57,0,133.56-60,133.56-133.35C286.86,686,226.87,626,153.3,626S19.73,686,19.73,759.51c0,73.37,60,133.35,133.57,133.35Z"/><path class="cls-4" d="M204.85,628.9a12.11,12.11,0,0,1,2.2.92l.92,1.66C90.92,684.3,59.54,878.55,59.54,879.1l-1.83-.37c-.55-.36-1.1-.91-1.65-1.27,2.75-15.6,36.33-196.28,148.79-248.56Z"/><path class="cls-4" d="M281.91,835.81a34.18,34.18,0,0,1-2,3.67C195.68,717.87,94.22,678.07,45.23,665.41c.92-.92,1.84-2,2.94-2.94,50.09,13.4,150.26,53.75,233.74,173.34Z"/><path class="cls-4" d="M160.27,910.47a42.26,42.26,0,0,1-4.77.18C144.68,894.51,139.9,872.13,132,836c-2.74-13.58-6.23-29.17-10.45-47.15-18.72-78.69-76.33-55.76-113.39-31a40.15,40.15,0,0,1,.37-4.77C47.07,728,105.78,706.31,125,787.94c4.41,18,7.7,33.56,10.65,47.33,7.88,37.05,12.65,59.24,24.58,75.2Z"/><path class="cls-4" d="M153.67,621.75c1.46,0,2.93.18,4.22.18-9.73,18.35-11.38,42.19,41.45,47,26.61,2.39,46.24,2.39,60.73,1.1.92,1.1,1.84,2,2.76,3.12-15,1.65-35.78,2-63.67-.55-57.24-5.13-55.95-30.81-45.49-50.81Z"/></g><g id="Basketball_Hoop" data-name="Basketball Hoop"><rect class="cls-5" x="44.85" width="774.83" height="501.73"/><rect class="cls-6" x="437" y="40.91" width="319.83" height="420.23"/><rect class="cls-7" x="79.53" y="22.52" width="705.76" height="456.99"/><rect class="cls-8" x="437" y="40.91" width="319.83" height="420.23"/><rect class="cls-9" x="107.98" y="40.91" width="648.85" height="420.23"/><path class="cls-10" d="M292.64,236.49H571.87V417.27H292.64Zm33.2,21.34H539v137.8H325.84Z"/><rect class="cls-11" x="437" width="382.68" height="501.73"/><path class="cls-12" d="M374.75,385c0,.3-3,115,149.69,167.73L523,556.56C367.64,502.62,370.9,385.27,370.9,385Z"/><path class="cls-12" d="M492.43,381.11c0,.29,10.67,123.28-150.88,176.93l-1.18-3.85C499,501.43,488.28,381.7,488.28,381.4Z"/><path class="cls-12" d="M303.91,441.27c.29.3,102,126.54,214.31,163L517,608.13C403.5,571.37,301,444.24,300.65,443.94Z"/><path class="cls-12" d="M561.21,445.12c-.3.3-140.51,145.8-214.33,160.92l-.88-3.85c72.62-15.12,211.94-159.44,212.24-160Z"/><path class="cls-12" d="M346.88,649.61c.3,0,124.51-45,175.5-96.61l2.66,3c-51.29,52.17-176.37,97.2-177,97.5Z"/><path class="cls-12" d="M342.15,554.49c.29.28,91.29,70.52,170.73,93.94l-1.18,3.84c-80-23.71-171.63-94.23-171.93-94.54Z"/><polygon class="cls-12" points="347.48 602.49 427.22 654.64 516.74 604.57 518.81 608.13 428.11 658.8 427.22 659.38 426.04 658.5 345.41 605.75 347.48 602.49"/><path class="cls-13" d="M277.23,379.92c.3.3,73.51,142.55,71.74,273.54H331.18c1.78-126.84-69.66-264.94-69.66-265.53Z"/><path class="cls-13" d="M529.84,657c2.76-134,75.53-275,75.82-275.6l-17.49-8.59c0,.3-75,145.36-77.63,284.19Z"/><path class="cls-14" d="M265.37,370.14h337A11.9,11.9,0,0,1,614.27,382h0a11.83,11.83,0,0,1-11.87,11.55h-337A11.82,11.82,0,0,1,253.52,382h0a11.89,11.89,0,0,1,11.85-11.86Z"/></g><g id="Shoes_2" data-name="Shoes 2"><g id="Shoes2"><path class="cls-15" d="M700.33,687.77s-41.15,34.27-22.22,91.6c0,0,24.83,7.55,71.61-4.4s73.52,13.17,113,15.37,93.84-3.28,98.22-14.27,10.42-27.43-25.78-26.33-79-17-105.35-37.84-35.67-48.29-43.91-44.43-13.17,26.33-28.53,35.64S725,726.17,700.33,687.77Z"/><path class="cls-16" d="M676.87,725.07c-.23.71-.44,1.43-.64,2.15a189.31,189.31,0,0,1,26.52,19.18c13.59,11.61,31.48,22.54,49.5,27.72l.5.15c1.68-.4,3.32-.72,5-1-1.62-.38-3.23-.79-4.86-1.27-17.71-5.08-35.29-15.84-48.67-27.26a188.8,188.8,0,0,0-27.31-19.68ZM788.3,772.75c1.47.21,2.9.44,4.35.71.6-.27,1.23-.54,1.83-.85l.06,0s33.55-22.17,34.61-23.61l-2.65-1.58c-.75,1-32.1,22.74-33,23.26a43.37,43.37,0,0,1-5.22,2.09Z"/><path class="cls-17" d="M902.34,746.19c-27-6.16-53.86-19.52-72.5-34.29-26.34-20.85-35.67-48.29-43.91-44.43-7.82,3.65-12.67,24.13-26.31,34.16,2.59,3.47,8,6,19.33-.09,20.3-11,38.4,13.72,44.44,17.28,5.68,3.36,37.76,36.77,79,27.37Z"/><path class="cls-4" d="M797.61,675.76c-4.79-6.23-8.32-9.87-11.68-8.29-6.88,3.19-11.47,19.42-21.73,30.13a41.35,41.35,0,0,0,6.64-6.35c9.18-10.31,15.86-13.07,26.77-15.49Z"/><path class="cls-4" d="M895.68,790.53c4.86-.19,9.64-.48,14.33-.84,13.71-7.07,33.1-19.46,45.62-37.63a34.44,34.44,0,0,0-7.13-1.74c-5.47,6.54-25.76,29-52.82,40.21Z"/><path class="cls-16" d="M957.52,779.66a8.26,8.26,0,0,0,3.45-3.59c3.58-9,8.27-21.58-9.89-25.31,3.52,6,9.59,19.68,6.44,28.9Z"/><path class="cls-18" d="M767.39,705.24c.05,0,16.55,5.44,41.13,26.42,13.38,11.43,31,22.16,48.67,27.27,14.25,4.1,28.54,4.51,40.67-1.37.89-.5,12.44-8.58,13.19-9.62l2.45.39c-1.06,1.46-14.59,11.14-14.62,11.16l-.07,0c-12.67,6.15-27.5,5.74-42.22,1.51-18-5.18-35.92-16.13-49.5-27.72-24.24-20.71-40.34-26-40.38-26Z"/><path class="cls-16" d="M674,762.14a99.82,99.82,0,0,0,4.08,17.23s15.24,4.62,44.37.89C703,776.65,684.05,767.53,674,762.14Z"/><path class="cls-19" d="M700.33,687.77a75,75,0,0,0-12.7,14.87c3.22,0,8.88,1.3,12.37,8.7,5.07,10.84,23.18,20.86,40.6,12.9a121.79,121.79,0,0,0,29.55-19.34l-2.3-11.62a38.08,38.08,0,0,1-10.45,9.83C742,712.44,725,726.17,700.33,687.77Z"/><path class="cls-20" d="M700.33,687.77a65.43,65.43,0,0,0-7.61,8,46.26,46.26,0,0,0,29.48,23.11c24.23,6.49,46.52-17.21,46.73-19,.12-1.06-.69-4-1.37-6.22a37.74,37.74,0,0,1-10.16,9.43C742,712.44,725,726.17,700.33,687.77Z"/><path class="cls-21" d="M676.43,773.8c-4.37,8.54-9.33,23.13,3.88,29.16,19.2,8.78,41.42,9.61,71.61,6s63.65-.56,77.63,2.2c0,0,9.27,2.4,9.53,1.31s.21-5.56,2.62-5,2.68,3.63,2.68,5.42c0,0,20.9,1.38,22,.14s.2-4.66,2.46-4.24,2.62,4.24,2.62,4.24,21.82,1.16,23.72-.42.62-5.4,3.1-5,1,3.83,2.75,3.83,22.48-1.57,24.27-5.41-.48-4.6,1.86-5.07a2.42,2.42,0,0,1,3.1,2.19c.12.89,3.21.54,5.61-1.3,2-1.54,18.81-14.23,23.29-23.41-10.66,9.37-59.87,13.91-96.41,11.88-39.51-2.2-66.26-27.29-113-15.37s-71.61,4.4-71.61,4.4c-.62-1.89-1.18-3.73-1.68-5.57Z"/><path class="cls-22" d="M950.54,782.85l-.11,0c-.29.11-.6.21-.91.31l-.23.07c-.27.1-.56.18-.83.27l-.25.08-.91.25-.19.06c-.74.21-1.53.43-2.34.64l-.15,0c-.33.1-.68.18-1,.26l-.29.06c-.32.09-.65.17-1,.24l-.29.07-1,.23-.26.07q-1.29.29-2.67.54l-.18,0c-.38.08-.77.14-1.17.23l-.33,0-1.08.2-.35.06-1.2.23-.19,0c-1,.16-2,.33-3,.47l-.31.07c-.4.06-.79.1-1.19.17l-.41,0-1.12.17-.42.06c-.45.07-.89.13-1.34.17l-.15,0c-1.06.14-2.12.29-3.19.41l-.4,0c-.39,0-.79.09-1.18.15l-.54.06c-.35,0-.72.06-1.08.1l-.51.07-1.31.12-.3,0-1.68.16-.2,0-1.41.13-.56,0c-.37,0-.75.08-1.1.1l-.6,0c-.38,0-.77.09-1.17.11l-.49,0-1.26.11-.46,0-1.64.12-.47,0c-.42,0-.84.06-1.25.08l-.58,0-1.14.06-.58.05-1.23,0-.5,0-1.36.07-.38,0c-.56,0-1.12,0-1.68.08l-.54,0c-.41,0-.82,0-1.24,0l-.58,0c-.38,0-.75,0-1.14,0l-.62,0-1.19,0-.55,0-1.31,0-.44,0c-.56,0-1.12,0-1.68,0h-.56l-1.18,0h-1.74l-.62,0h-5.64c-.4,0-.79,0-1.19,0h-2.36c-.39,0-.79,0-1.16,0h-.48c-.56,0-1.12,0-1.68,0h0c-.56,0-1.1,0-1.63,0l-.51,0c-.37,0-.74,0-1.12,0l-.66,0c-.33,0-.68,0-1,0l-.59,0c-.36,0-.73,0-1.08,0l-.57,0c-.52,0-1.05,0-1.57-.08-39.51-2.2-66.26-27.29-113-15.37s-71.61,4.4-71.61,4.4l0-.08,0-.09,0,0v-.06l0-.08,0-.08,0-.09,0-.11v0l0,0,0-.08,0-.09,0-.1,0-.09v0l0,0,0-.09,0-.07v0l0-.08c-.44-1.39-.85-2.78-1.23-4.16-4.1,8-8.71,21.29,1.56,27.9a182.3,182.3,0,0,0,71-4.62c46.37-12.36,62.36-5.71,104.27,4.93,39.26,10,85.36-6.7,97.35-19.2Z"/><path class="cls-12" d="M789.06,716.75c.11,0,25.7-19.14,33.44-11.69.35,2.57-3.2,8.57-6.46,13.46,6.91-4.68,16.35-10.1,17.32-5.29.67,3.34-2.26,10.38-4.89,15.84,6-5,14.47-11,16.77-6.51,1.68,3.23-1,9.2-3.94,14.14,6.37-4.79,14.63-10.12,15.83-6.61.68,1.95-.35,6.23-1.66,10.32,4.17-4.93,9.25-9.6,11.18-5.87,1.39,2.7.89,8,.14,12.34,4.38-5.52,10.87-12.3,12.2-6.08a36.64,36.64,0,0,1,.66,7.92c2.84-4.85,6.8-10.16,8.59-6,.6,1.39,1.35,3.18,2,4.88l.45-4.5,3.1.91-1.25,9.58h0a1.41,1.41,0,0,1-.89,1.2,1.48,1.48,0,0,1-1.91-.78s-2.53-6.16-4.23-10.15c-.33-.76-6.18,11.51-6.51,12.24a1.5,1.5,0,0,1-1.55.85,1.46,1.46,0,0,1-1.25-1.64s1.16-8-.11-13.91c-.57-2.65-10.2,11.42-11,12.65a1.47,1.47,0,0,1-2.67-1.15s3.69-13,1.62-17c-1.19-2.3-12.28,14.22-12.3,14.27h0a1.46,1.46,0,0,1-1.78.51,1.44,1.44,0,0,1-.77-1.9s6.28-14.52,5.16-17.75c-.6-1.72-18.72,14-18.79,14h0a1.46,1.46,0,0,1-2.1-2s11.5-14.64,9.17-19.14c-1.78-3.51-17.63,12.23-18.23,12.81a1.45,1.45,0,0,1-2.3-1.72c0-.06,9.31-16.41,8.36-21.17-.58-2.94-19.87,12.3-19.91,12.34h0a1.48,1.48,0,0,1-1.79,0,1.46,1.46,0,0,1-.28-2s11.57-15.16,11.11-18.68c-.37-2.66-27.73,13-27.83,13Z"/><path class="cls-23" d="M791.2,716.15c1.29,1,1.76,2.47,1.08,3.4s-2.28.94-3.57,0-1.76-2.46-1.08-3.4,2.29-.94,3.57,0Z"/><path class="cls-23" d="M809.78,724.38c1.29.94,1.78,2.47,1.1,3.41s-2.28.93-3.57,0-1.78-2.44-1.1-3.38,2.29-.93,3.57,0Z"/><path class="cls-23" d="M823.22,734.38c1.29,1,1.76,2.46,1.08,3.4s-2.28.93-3.57,0-1.76-2.47-1.07-3.4,2.28-.94,3.56,0Z"/><path class="cls-23" d="M834.42,742.4c1.29,1,1.79,2.47,1.1,3.4s-2.28.94-3.56,0-1.8-2.47-1.11-3.4,2.28-.94,3.57,0Z"/><path class="cls-23" d="M850.56,748.67c1.53.43,2.5,1.69,2.17,2.81s-1.82,1.66-3.36,1.21-2.51-1.71-2.17-2.83,1.82-1.65,3.36-1.19Z"/><path class="cls-23" d="M863.17,752c1.53.43,2.5,1.69,2.17,2.81s-1.82,1.66-3.36,1.21-2.5-1.71-2.17-2.83,1.82-1.65,3.36-1.19Z"/><path class="cls-23" d="M877.12,754.38c1.53.44,2.51,1.71,2.2,2.83s-1.85,1.63-3.36,1.2-2.51-1.7-2.2-2.82,1.85-1.66,3.36-1.21Z"/><path class="cls-23" d="M892.28,752.79c1.54.43,2.51,1.7,2.18,2.82s-1.83,1.66-3.36,1.2-2.49-1.7-2.18-2.82,1.82-1.65,3.36-1.2Z"/></g><g id="Shoes1"><path class="cls-15" d="M666,579.65s52.23-11.88,86.28,38c0,0-9.07,24.3-47,54.22S671.14,738.26,648.89,771s-59.57,72.58-71,69.39S549.8,832,572.66,803.9s34.46-73.11,33.89-106.69-16.71-57.66-8.65-61.86,28.92,5.52,45.65-1,38-11.73,22.45-54.67Z"/><path class="cls-16" d="M709.89,583.66a189.34,189.34,0,0,0-.95,33.65c1,17.57-1.17,38.07-7.88,55.22-.61,1.58-1.26,3.11-1.95,4.63,1.21-1.14,2.47-2.24,3.8-3.34l.19-.48c6.82-17.46,9-38.32,8-56.16a188.66,188.66,0,0,1,.86-32.72c-.71-.27-1.4-.56-2.1-.8ZM680.13,701.15a44.41,44.41,0,0,1-4.84,2.88c-.94.38-37.23,12.12-38.5,12.08l-.36,3.06c1.79,0,39.74-13.13,39.78-13.16l0,0c.61-.29,1.2-.61,1.78-.93.67-1.32,1.36-2.59,2.09-3.89Z"/><path class="cls-17" d="M589.79,775.64C601.26,750.48,607,721,606.55,697.21c-.58-33.59-16.71-57.66-8.65-61.86,7.65-4,26.87,4.58,43.13-.17,1.18,4.16-.1,10.05-11.82,15.3-21,9.48-12.41,38.85-13.24,45.81-.78,6.56,6.28,52.33-26.18,79.35Z"/><path class="cls-4" d="M597.4,649.66c-2-7.6-2.79-12.6.5-14.31,6.72-3.53,22.4,2.68,37.13,1a41.21,41.21,0,0,1-9.06,1.42c-13.77,1.05-20,4.68-28.57,11.87Z"/><path class="cls-4" d="M629.05,797.27c-3.1,3.74-6.24,7.37-9.36,10.87-13.94,6.61-35.57,14.49-57.6,13.42a34,34,0,0,1,2.94-6.74c8.52-.37,38.69-2.85,64-17.55Z"/><path class="cls-16" d="M582.87,839.81a8.31,8.31,0,0,1-4.94.56c-9.29-2.59-22.18-6.53-14.11-23.23,2.67,6.47,9.8,19.57,19,22.67Z"/><path class="cls-18" d="M639.18,643.55c0,.05-5.73,16.45-4,48.72.95,17.56-1.2,38.08-7.89,55.22-5.39,13.82-13.73,25.43-25.78,31.49-.94.41-14.37,4.67-15.65,4.64l-1.17,2.18c1.79,0,17.69-4.82,17.74-4.84l.07,0c12.59-6.33,21.26-18.36,26.84-32.63,6.82-17.46,9-38.33,8-56.16-1.74-31.85,3.84-47.82,3.87-47.86Z"/><path class="cls-16" d="M741.07,603.91a99.5,99.5,0,0,1,11.21,13.71s-5.58,14.91-26.22,35.79c8.94-17.65,13.21-38.27,15-49.5Z"/><path class="cls-19" d="M666,579.65a75.59,75.59,0,0,1,19.53-1.06c-1.92,2.58-4.36,7.85-.59,15.12,5.53,10.61,2.5,31.08-14.4,40.09a121.55,121.55,0,0,1-33.32,11.73l-7.82-8.88a38.21,38.21,0,0,0,14.15-2.33c16.74-6.55,38-11.73,22.45-54.67Z"/><path class="cls-20" d="M666,579.65a66.72,66.72,0,0,1,11-1.19,46.36,46.36,0,0,1,.47,37.47c-9.56,23.19-41.92,26.51-43.47,25.59-.91-.54-2.74-3-4.1-4.86a37.73,37.73,0,0,0,13.66-2.34c16.74-6.55,38-11.73,22.45-54.67Z"/><path class="cls-21" d="M748.87,612.9c9.45,1.7,24,6.63,20.83,20.79-4.7,20.59-17.52,38.74-38.69,60.56s-39.09,50.24-45.38,63c0,0-3.72,8.82-4.76,8.37s-4.54-3.21-5.57-1,1.26,4.33,2.68,5.42c0,0-11.59,17.44-13.25,17.56s-3.83-2.66-4.87-.62,1.79,4.66,1.79,4.66-12.33,18-14.73,18.6-4.69-2.8-5.86-.58,2.42,3.16,1.38,4.52-14.9,16.91-19,16-3.37-3.18-5.17-1.6a2.41,2.41,0,0,0-.13,3.79c.63.63-1.53,2.87-4.45,3.67-2.41.64-22.72,6.31-32.74,4.29,13.92-2.78,47.4-39.12,68-69.4,22.25-32.72,18.55-69.22,56.42-99.14s47-54.22,47-54.22c-1.12-1.64-2.25-3.21-3.41-4.72Z"/><path class="cls-22" d="M748.87,612.9c.88,1.14,1.72,2.31,2.56,3.5l.06.06,0,0,0,.08.05.07,0,0,0,0,0,.09.08.08.05.06,0,.09,0,0,0,0,.06.09,0,.06.06.07,0,.09,0,0,0,0,.05.08,0,.07s-9.07,24.3-47,54.22S671.14,738.26,648.89,771c-.27.45-.59.88-.89,1.31l-.3.46c-.22.29-.43.6-.62.89l-.35.49c-.18.28-.39.56-.59.83l-.38.54c-.21.31-.43.63-.65.92l-.28.41c-.32.44-.63.88-1,1.32v0c-.33.46-.64.91-1,1.36l-.27.39c-.22.29-.45.62-.69.93l-.4.54-.63.84-.39.52c-.22.32-.46.64-.7,1l-.3.4-1,1.31,0,.05-.08.12-1,1.25-.29.38-.74,1-.4.49-.68.88-.39.48-.74.93-.34.45c-.35.43-.69.88-1,1.3l-.28.34-.81,1-.35.43-.76.91-.39.49c-.24.31-.49.59-.73.87l-.37.45c-.27.32-.51.65-.79,1l-.34.41c-.37.42-.72.85-1.08,1.29l-.25.28-.88,1.05-.33.37-.8.93-.38.45c-.25.28-.5.57-.74.86l-.39.44c-.26.31-.54.63-.82.93l-.3.37c-.37.4-.74.83-1.1,1.22l-.29.36c-.28.3-.56.63-.85.94l-.34.37c-.25.3-.53.59-.78.86l-.4.46c-.23.26-.49.53-.75.8l-.37.42-1,1-.15.15c-.39.41-.76.83-1.15,1.23l-.21.21-.89,1-.36.37c-.25.25-.51.52-.74.79l-.38.39c-.28.28-.56.56-.83.86l-.27.28c-.75.78-1.51,1.54-2.27,2.29l-.1.09c-.31.34-.63.66-.95,1l-.31.29c-.27.26-.53.53-.81.79l-.3.29-.85.84-.23.21c-.73.71-1.46,1.4-2.18,2.07l-.13.13c-.32.28-.61.56-.92.82l-.26.24-.8.75-.26.22c-.3.27-.58.54-.88.79l-.15.12c-.68.62-1.37,1.22-2,1.8l-.2.16c-.28.23-.56.45-.81.68l-.24.18c-.26.23-.52.44-.78.64l-.22.19c-.28.24-.56.46-.85.67l-.1.1-1.93,1.47-.17.11-.74.57-.23.15c-.22.16-.46.34-.71.5l-.19.14-.8.54-.08.06-.1.06c17.22-1.93,58.43-28.46,74.36-65.7,17-39.75,21.42-56.5,59.39-85.84a182.11,182.11,0,0,0,46.8-53.64C771.08,618.9,757.7,614.48,748.87,612.9Z"/><path class="cls-12" d="M635.16,667.75c-.08.08-30.8,8.81-29.59,19.47,1.83,1.84,8.75,2.66,14.61,3-7.92,2.64-17.95,6.85-14.71,10.54,2.25,2.56,9.62,4.52,15.55,5.73-7.63,1.7-17.55,4.81-15.35,9.38,1.55,3.31,7.93,4.79,13.62,5.46-7.67,2.15-16.91,5.48-14.86,8.56,1.14,1.72,5.17,3.5,9.21,4.95-6.45.31-13.24,1.52-11.44,5.31,1.29,2.75,5.81,5.58,9.71,7.61-7,.13-16.37,1.17-12.23,6a36.17,36.17,0,0,0,5.89,5.33c-5.58-.69-12.2-.76-10,3.19.74,1.31,1.7,3,2.63,4.58l-3.85-2.37-1.15,3,8.36,4.83h0a1.42,1.42,0,0,0,1.5,0,1.49,1.49,0,0,0,.54-2s-3.36-5.75-5.49-9.52c-.41-.73,12.89,2.08,13.67,2.25a1.51,1.51,0,0,0,1.62-.71,1.47,1.47,0,0,0-.55-2s-7-3.92-11-8.53c-1.75-2.07,15.27-1.17,16.75-1.09a1.45,1.45,0,0,0,1.53-.91,1.48,1.48,0,0,0-.82-1.91s-12.58-5-14.5-9c-1.11-2.33,18.76-1.11,18.8-1.1h0a1.46,1.46,0,0,0,.44-2.88s-15.34-3.81-17.23-6.67c-1-1.52,22.46-6.4,22.54-6.42h0a1.46,1.46,0,0,0-.33-2.89s-18.6.25-20.76-4.33c-1.7-3.54,20.42-6.58,21.25-6.71a1.44,1.44,0,0,0,0-2.87c-.06,0-18.68-2.56-21.89-6.21-2-2.25,21.83-8.33,21.89-8.33h0a1.46,1.46,0,0,0,1.08-1.42,1.44,1.44,0,0,0-1.44-1.46c-.05,0-19.07,0-21.59-2.51-1.88-1.91,27.15-14.15,27.23-14.22Z"/><path class="cls-23" d="M633.39,669.1c0,1.59.89,2.89,2.05,2.91s2.12-1.25,2.16-2.83-.89-2.9-2-2.92-2.13,1.25-2.17,2.84Z"/><path class="cls-23" d="M628.65,688.85c0,1.59.88,2.91,2,2.94s2.13-1.24,2.15-2.84-.86-2.91-2-2.93-2.13,1.25-2.17,2.83Z"/><path class="cls-23" d="M628.43,705.6c0,1.6.89,2.9,2.05,2.92s2.13-1.25,2.16-2.84-.89-2.89-2-2.91-2.12,1.24-2.16,2.83Z"/><path class="cls-23" d="M628,719.37c0,1.6.88,2.92,2,2.94s2.13-1.25,2.17-2.84-.88-2.91-2-2.93-2.13,1.24-2.17,2.83Z"/><path class="cls-23" d="M623.19,736c-.59,1.48-.18,3,.91,3.43s2.43-.44,3-1.94.17-3-.92-3.43-2.43.44-3,1.94Z"/><path class="cls-23" d="M618.2,748.05c-.59,1.49-.18,3,.92,3.44s2.43-.44,3-1.94.18-3-.92-3.44-2.42.45-3,1.94Z"/><path class="cls-23" d="M611.6,760.58c-.58,1.48-.17,3,.91,3.46s2.42-.48,3-1.95.18-3-.9-3.45-2.44.46-3,1.94Z"/><path class="cls-23" d="M601.13,771.65c-.59,1.49-.17,3,.92,3.45s2.43-.44,3-1.94.16-3-.92-3.45-2.42.45-3,1.94Z"/></g></g></g></g></g></g></svg>