<svg xmlns="http://www.w3.org/2000/svg" viewBox="0 0 737.09 773.59"><defs><style>.cls-1{fill:#002b42;}.cls-1,.cls-10,.cls-11,.cls-12,.cls-13,.cls-14,.cls-15,.cls-16,.cls-18,.cls-2,.cls-3,.cls-4,.cls-5,.cls-6,.cls-7,.cls-8,.cls-9{fill-rule:evenodd;}.cls-3{fill:#333;}.cls-4{fill:#a3a3a3;}.cls-5{fill:#004359;}.cls-6{fill:#999;}.cls-7{fill:#033;}.cls-8{fill:#ff3e4d;}.cls-9{fill:#dddcdb;}.cls-10{fill:#c6c6c6;}.cls-11{fill:#002c34;}.cls-12{fill:#e6e6e6;}.cls-13{fill:#2d2d2d;}.cls-14{fill:#3f3f3f;}.cls-15{fill:#c30;}.cls-16{fill:#666;}.cls-17{fill:#1c0800;}.cls-18{fill:gray;}.cls-19{fill:#4eb96a;}.cls-20,.cls-22{fill:#231f20;}.cls-20{opacity:0.2;}.cls-21{fill:#58595b;}.cls-22{opacity:0.4;}.cls-23{fill:#f7941e;}.cls-24{fill:#6d6e71;}.cls-25{fill:#e6e7e8;}.cls-26{fill:#a7a9ac;}.cls-27{fill:#f1f2f2;}.cls-28{fill:#bcbec0;}</style></defs><title>bike</title><g id="Layer_2" data-name="Layer 2"><g id="Layer_1-2" data-name="Layer 1"><g id="Cycling"><g id="Cycling-2" data-name="Cycling"><g id="Bicycle"><path class="cls-1" d="M150.41,466.17c83.07,0,150.4,67.92,150.4,151.7s-67.33,151.65-150.4,151.65S0,701.61,0,617.87s67.34-151.7,150.41-151.7Zm0,9.14c78,0,141.3,63.81,141.3,142.56s-63.27,142.51-141.3,142.51S9.1,696.58,9.1,617.87,72.37,475.31,150.41,475.31Z"/><rect x="148.43" y="618.59" width="2.98" height="133.2"/><polygon class="cls-2" points="151.58 618.29 148.73 619.1 182.88 747.73 185.73 746.97 151.58 618.29"/><polygon class="cls-2" points="151.66 618 149.06 619.48 215.1 734.83 217.66 733.35 151.66 618"/><polygon class="cls-2" points="151.62 617.66 149.52 619.77 242.92 713.97 245.01 711.86 151.62 617.66"/><polygon class="cls-2" points="151.54 617.32 150.07 619.95 264.44 686.5 265.91 683.93 151.54 617.32"/><polygon class="cls-2" points="151.37 617.06 150.62 619.95 278.16 654.43 278.95 651.55 151.37 617.06"/><rect x="151.16" y="616.82" width="132.03" height="3"/><polygon class="cls-2" points="150.87 616.69 151.62 619.56 279.17 585.08 278.41 582.21 150.87 616.69"/><polygon class="cls-2" points="150.53 616.6 152 619.19 266.37 552.58 264.9 549.99 150.53 616.6"/><polygon class="cls-2" points="150.19 616.6 152.29 618.72 245.69 524.52 243.59 522.41 150.19 616.6"/><polygon class="cls-2" points="149.9 616.69 152.46 618.21 218.5 502.86 215.94 501.33 149.9 616.69"/><polygon class="cls-2" points="149.61 616.86 152.46 617.66 186.65 488.98 183.8 488.22 149.61 616.86"/><rect x="149.4" y="483.91" width="2.94" height="133.2"/><polygon class="cls-2" points="149.23 617.4 152.08 616.65 117.93 487.96 115.04 488.73 149.23 617.4"/><polygon class="cls-2" points="149.15 617.7 151.71 616.22 85.71 500.87 83.11 502.35 149.15 617.7"/><polygon class="cls-2" points="149.15 618.04 151.25 615.92 57.9 521.73 55.8 523.85 149.15 618.04"/><polygon class="cls-2" points="149.27 618.38 150.74 615.75 36.37 549.19 34.91 551.78 149.27 618.38"/><polygon class="cls-2" points="149.44 618.63 150.19 615.75 22.65 581.27 21.86 584.19 149.44 618.63"/><rect x="17.62" y="615.88" width="132.03" height="3.01"/><polygon class="cls-2" points="149.94 619.01 149.19 616.13 21.6 650.63 22.4 653.5 149.94 619.01"/><polygon class="cls-2" points="150.28 619.1 148.77 616.52 34.4 683.12 35.91 685.7 150.28 619.1"/><polygon class="cls-2" points="150.57 619.1 148.52 616.98 55.13 711.18 57.22 713.29 150.57 619.1"/><polygon class="cls-2" points="150.91 619.01 148.35 617.49 82.31 732.85 84.87 734.36 150.91 619.01"/><polygon class="cls-2" points="151.2 618.84 148.31 618.04 114.16 746.72 117.01 747.48 151.2 618.84"/><path class="cls-3" d="M150.41,482c74.38,0,134.67,60.84,134.67,135.87S224.79,753.7,150.41,753.7,15.73,692.9,15.73,617.87,76,482,150.41,482Zm0,8.21c69.89,0,126.53,57.17,126.53,127.66S220.3,745.49,150.41,745.49,23.87,688.33,23.87,617.87,80.51,490.21,150.41,490.21Z"/><path class="cls-4" d="M150.41,475.31c78.07,0,141.34,63.81,141.34,142.56S228.48,760.38,150.41,760.38,9.06,696.58,9.06,617.87,72.33,475.31,150.41,475.31Zm0,8.6c73.33,0,132.78,59.95,132.78,134S223.74,751.8,150.41,751.8s-132.79-60-132.79-133.93,59.45-134,132.79-134Z"/><path class="cls-1" d="M581.53,470.87c82.9,0,150.07,67.78,150.07,151.36S664.43,773.59,581.53,773.59s-150-67.79-150-151.36,67.17-151.36,150-151.36Zm0,9.14c77.86,0,141,63.68,141,142.22s-63.15,142.22-141,142.22-141-63.69-141-142.22S503.67,480,581.53,480Z"/><rect x="579.6" y="622.99" width="2.93" height="133.17"/><rect x="596.9" y="620.84" width="2.95" height="133.1" transform="translate(-156.97 177.48) rotate(-14.94)"/><polygon class="cls-2" points="582.79 622.36 580.23 623.83 646.26 739.19 648.83 737.71 582.79 622.36"/><polygon class="cls-2" points="582.79 622.02 580.69 624.13 674.08 718.33 676.18 716.21 582.79 622.02"/><polygon class="cls-2" points="582.71 621.72 581.2 624.3 695.56 690.9 697.08 688.33 582.71 621.72"/><polygon class="cls-2" points="582.53 621.43 581.75 624.3 709.32 658.79 710.08 655.91 582.53 621.43"/><rect x="582.29" y="621.22" width="132.07" height="2.96"/><polygon class="cls-2" points="581.99 621.04 582.75 623.92 710.33 589.48 709.57 586.6 581.99 621.04"/><polygon class="cls-2" points="581.7 620.96 583.16 623.54 697.53 556.98 696.07 554.4 581.7 620.96"/><polygon class="cls-2" points="581.36 621 583.46 623.07 676.85 528.93 674.75 526.81 581.36 621"/><polygon class="cls-2" points="581.03 621.09 583.59 622.57 649.62 507.21 647.06 505.74 581.03 621.09"/><polygon class="cls-2" points="580.77 621.26 583.63 622.02 617.82 493.38 614.92 492.58 580.77 621.26"/><rect x="580.52" y="488.3" width="2.98" height="133.16"/><rect x="563.25" y="490.51" width="2.95" height="133.11" transform="translate(-124.63 164.61) rotate(-14.96)"/><polygon class="cls-2" points="580.31 622.1 582.87 620.62 516.84 505.27 514.28 506.75 580.31 622.1"/><polygon class="cls-2" points="580.31 622.44 582.41 620.33 489.02 526.13 486.92 528.25 580.31 622.44"/><polygon class="cls-2" points="580.4 622.73 581.87 620.16 467.5 553.55 466.03 556.13 580.4 622.73"/><polygon class="cls-2" points="580.57 623.03 581.32 620.16 453.78 585.67 453.03 588.55 580.57 623.03"/><rect x="448.74" y="620.24" width="132.08" height="3.01"/><polygon class="cls-2" points="581.11 623.41 580.31 620.53 452.77 654.98 453.53 657.86 581.11 623.41"/><polygon class="cls-2" points="581.41 623.5 579.93 620.87 465.57 687.48 467.03 690.07 581.41 623.5"/><polygon class="cls-2" points="581.75 623.46 579.64 621.38 486.25 715.53 488.35 717.65 581.75 623.46"/><polygon class="cls-2" points="582.03 623.37 579.47 621.89 513.44 737.24 516.04 738.72 582.03 623.37"/><polygon class="cls-2" points="582.32 623.2 579.47 622.44 545.28 751.07 548.14 751.88 582.32 623.2"/><path class="cls-5" d="M267.92,376.33s-3.35,4-10.36,5l-.59-4.44-19.55,3-14.6.72-.21,5.12s-1.55,3.68,7.34,2.45,14.06-3.55,15.44-.54c.46,1,.84,1.86,1.09,2.49l-1.21.34,19.42,74.35,14.64-3.9L260,386.58l-1.09.3-1-3.27s10.83.93,13.72-7.31l-2.14-2.37Z"/><path class="cls-5" d="M473.79,382.9s-2.89-2.71-.12-4.27,13.54-5.93,15-3.9,1.21,3.81,4,2.87S506,375.49,505.42,373s-3.23-2.71-6-2.92-4.33-1.7,3.23-4.7,33.26-9.31,29.62-3.6-6.34,8.08,2.56,8,27.52.21,31.84-.22c0,0,12.67-9,13.34-13.66s-.46-7.15-.46-7.15,10.45-4.28,12.2-.89,3.78-2.5,6.8-.34,1,8.72,1.64,16.46,6.33,15.87,7,29.87a16.08,16.08,0,0,0,9,12.11s3.78,4.23-1.09,3.47-11-4.95-12.33-14.22-4.11-24.21-9.65-23.86c0,0-12.54,7.06-11.33,13.32s5.87,15.11,3.23,21.84-17.79,30.34-37.55,37.28L539,431.94s32.22-14.81,31.76-27.12-9.56-20.57-14-20.57-27.57.76-27.57.76,2.23,3.81-5.32,4.91-23.25,1.27-26.64,3.6a111.89,111.89,0,0,0-8.64,7.15s-10.45-4.91-10.87-6.69-4-11.08-4-11.08Z"/><path class="cls-6" d="M594.41,348.33c1.18-.77,2.52-2,4.15-.81,3,2.12,1,8.72,1.64,16.46s6.33,15.87,7,29.87a16.08,16.08,0,0,0,9,12.11s3.78,4.23-1.09,3.47-11-4.95-12.33-14.22c-1.3-9-4-23.32-9.19-23.86a44.49,44.49,0,0,1,2.31-4.23c3.23-5.25.5-13.93-1.47-18.79Z"/><path class="cls-3" d="M581.53,486.4c74.39,0,134.72,60.8,134.72,135.83S655.92,758.06,581.53,758.06,446.86,697.25,446.86,622.23,507.14,486.4,581.53,486.4Zm0,8.2c69.9,0,126.58,57.13,126.58,127.63S651.43,749.85,581.53,749.85,455,692.73,455,622.23,511.68,494.6,581.53,494.6Z"/><polygon class="cls-7" points="471.02 381.84 487.43 376.3 500.39 415.4 483.94 420.94 471.02 381.84"/><path class="cls-4" d="M581.53,479.67c78.08,0,141.34,63.81,141.34,142.56S659.61,764.79,581.53,764.79,440.19,701,440.19,622.23,503.5,479.67,581.53,479.67Zm0,8.63c73.38,0,132.83,60,132.83,133.93S654.91,756.16,581.53,756.16s-132.79-60-132.79-133.93S508.19,488.3,581.53,488.3Z"/><path class="cls-8" d="M514.24,455.34l-.43-.59-13.08-42.82-19.09,5.91.62,2L276.4,449.92l-4.12-15.78a64.42,64.42,0,0,1-7.55,2.41,66.67,66.67,0,0,1-7.09,1.52l5.24,20.23.43-.08L153.05,621.55l6.5,4.32,156,35.67,15.57,13.62,167.6-201.25,1.76,5.76,19-6.13-5.49-18ZM490.87,448l-3-9.78L281.22,467.91l46.07,170.7Zm-221.1,21.49h.12l49.93,177.77-2.81,3.3L167.78,614.23Z"/><path class="cls-9" d="M327.24,620.5a30.36,30.36,0,1,1-30.12,30.37,30.21,30.21,0,0,1,30.12-30.37Zm0,7.66a22.7,22.7,0,1,1-22.48,22.71,22.59,22.59,0,0,1,22.48-22.71Z"/><path class="cls-10" d="M500.51,479.67l19-6.13c15.7,54.58,34.7,100.57,59.79,154.23l-9,2.42Z"/><path class="cls-11" d="M190.73,367.12s2.76-5,12.58-5.64,18.92,3.14,37.43,4.07,25.71,2.07,37.92.21,27-.59,30,7.61c0,0,5.37,6.94-23.67,3.56,0,0-18.71-1.86-28.86.76s-27.94,11.17-39.77,6.9-23.71-6-25.59-17.47Z"/><path class="cls-12" d="M175.62,614.06l161.44,3.34c20.14.43,34.66,19.39,32.56,38.55h0c-2.14,19.17-20.85,36-40.32,31.15L170.54,647c-19.5-4.9-21.1-9.52-20.68-13.41h0c.8-7.24-4.66-20.15,25.76-19.51Zm-1.93,4.11L322,619.86c20.9.21,36.5,4.48,42.25,19.51,1.68,4.35-.46,13.76-.37,19.63.24,11.94-14.82,30-30.76,25.81L186.45,646.6c-16-4.15-34.83-8.76-34.11-11.89l1-4.61c1.3-5.8-4.66-12.23,20.35-11.93Z"/><path class="cls-9" d="M327.24,630a20.85,20.85,0,1,1-20.64,20.86A20.76,20.76,0,0,1,327.24,630Zm0,5.3a15.55,15.55,0,1,1-15.43,15.56,15.5,15.5,0,0,1,15.43-15.56Z"/><path class="cls-13" d="M327.24,607.92a42.93,42.93,0,1,1-42.58,43,42.75,42.75,0,0,1,42.58-43Zm0,10.84a32.1,32.1,0,1,1-31.8,32.11,32,32,0,0,1,31.8-32.11Z"/><path class="cls-14" d="M330.69,645.55c4.36-.3,10.32-1.27,12.67-4.45,3.89-5.2,8,2.2,15.06,3.69h0l0,0c-6.13,3.81-7.47,12.18-12.93,8.63-2.85-1.91-7.76-1.27-11.74-.26,1.8,3.9,4.57,8.55,8.09,9.61,6.17,1.9.72,8.34,1.73,15.53l0,0,0,0v0l-.05,0c-5.66-4.49-13.93-2.92-12.46-9.26.8-3.39-1.47-7.84-3.77-11.26-3,3-6.38,7.27-6.21,11,.38,6.51-7.51,3.51-13.85,6.94l0,0h0l.08,0c2.23-6.9-2.1-14.22,4.36-15,3.4-.43,6.76-4.07,9.15-7.45-3.82-1.83-8.93-3.56-12.29-2.12-6,2.54-5.87-5.92-11.25-10.79h0l0,0,.09,0c7.17-.26,12.5-6.81,15.44-1,1.55,3.08,6.12,5,10.06,6.14.39-4.28.26-9.74-2.22-12.41-4.45-4.77,3.48-7.57,6.17-14.3v0h0v0c2.69,6.73,10.62,9.53,6.21,14.3-2.52,2.72-2.64,8.13-2.26,12.41Z"/><path class="cls-1" d="M328.5,644.32,397.73,692a4,4,0,0,1,1,5.54L395,703.17a3.94,3.94,0,0,1-5.54,1l-69.22-47.6a4,4,0,0,1-1.05-5.54l3.82-5.67a4,4,0,0,1,5.53-1.06Z"/><path class="cls-15" d="M373.48,692.43h34.74a1.94,1.94,0,0,1,1.93,2v6.35a1.94,1.94,0,0,1-1.93,2H373.48a1.94,1.94,0,0,1-1.93-2v-6.35a1.94,1.94,0,0,1,1.93-2Z"/><path class="cls-15" d="M326.53,656.89a4.93,4.93,0,0,0,0-9.86,4.93,4.93,0,0,0,0,9.86Z"/><path class="cls-9" d="M376.88,693.44h27.94a1.56,1.56,0,0,1,1.55,1.57v5.16a1.56,1.56,0,0,1-1.55,1.57H376.88a1.56,1.56,0,0,1-1.55-1.57V695a1.56,1.56,0,0,1,1.55-1.57Z"/><path class="cls-15" d="M390.85,702.5a4.91,4.91,0,1,0-4.87-4.91,4.9,4.9,0,0,0,4.87,4.91Z"/><path class="cls-2" d="M390.85,700.13a2.54,2.54,0,1,0-2.52-2.54,2.54,2.54,0,0,0,2.52,2.54Z"/><path class="cls-3" d="M154.73,606.91A20.84,20.84,0,1,1,134,627.77a20.78,20.78,0,0,1,20.69-20.86Zm0,5.29a15.55,15.55,0,1,1-15.44,15.57,15.45,15.45,0,0,1,15.44-15.57Z"/><path class="cls-16" d="M154.73,614.61a13.16,13.16,0,1,1-13.09,13.16,13.13,13.13,0,0,1,13.09-13.16Zm0,3.31a9.84,9.84,0,1,1-9.78,9.85,9.78,9.78,0,0,1,9.78-9.85Z"/><path class="cls-6" d="M154.73,618.5a9.27,9.27,0,1,1-9.23,9.27,9.26,9.26,0,0,1,9.23-9.27Zm0,2.33a6.92,6.92,0,1,1-6.88,6.94,6.88,6.88,0,0,1,6.88-6.94Z"/><path class="cls-17" d="M597,623a17.61,17.61,0,1,1-17.61-17.77A17.68,17.68,0,0,1,597,623Z"/><path class="cls-18" d="M154.73,642.16a14.41,14.41,0,1,0-14.31-14.39,14.37,14.37,0,0,0,14.31,14.39Z"/></g><g id="Helmet"><path class="cls-19" d="M534.67,209.48s-21.46-19.56-30.35-38.22,24.76-61.79,104.89-57.78,135.11,84.44,127.11,88S721,205,697.53,205s-28.76-7.11-38.54,15.11-30.38,33.78-53.41,10.67S534.67,209.48,534.67,209.48Z"/><path class="cls-20" d="M609.21,113.48c-48.44-2.43-79.85,12.37-95.2,28.58,32.06-15.35,104-37.89,173.87,22.09C706.35,180,720.1,192.93,730.3,203.5a32.51,32.51,0,0,0,6-2C744.32,197.92,689.34,117.49,609.21,113.48Z"/><path class="cls-21" d="M736.71,201.18c-11.78-.43-33.78-1.23-53.22-2C655.32,198,663,205,651.43,224.37s-27.11,16.11-44.11-1.56S544,207.48,536.65,203.5c-7-3.79-31.39-38.08-33.55-41.12a16.19,16.19,0,0,0,1.22,8.88c8.89,18.66,30.35,38.22,30.35,38.22s47.88-1.78,70.91,21.33,43.63,11.56,53.41-10.67S674.1,205,697.53,205s30.79,0,38.79-3.55A1.16,1.16,0,0,0,736.71,201.18Z"/><path class="cls-21" d="M569.65,142.31a55.71,55.71,0,0,1,39.85-.66c21.25,8-7.8,19.59-19.92,15.43S562.85,146.3,569.65,142.31Z"/><path class="cls-22" d="M606.89,146.2c-12.85-6.65-29.29-5.12-37.44-3.75-6.26,4,8.14,10.53,20.13,14.63,7.14,2.45,20.16-.58,25.3-5.11A28.57,28.57,0,0,0,606.89,146.2Z"/><path class="cls-21" d="M634.49,140.9a55.72,55.72,0,0,1,39,8.25c18.93,12.52-12,17.35-22.87,10.6S627,143.26,634.49,140.9Z"/><path class="cls-22" d="M669.92,153c-11-9.35-27.41-11.54-35.65-12-7,2.49,5.58,12.08,16.34,18.76,6.42,4,19.79,3.93,25.81.67A28.73,28.73,0,0,0,669.92,153Z"/><path class="cls-21" d="M554,178.34a32.93,32.93,0,0,1,22.74-6.19c13.35,1.48-1.62,12.37-9.17,11.76S550.67,181.61,554,178.34Z"/><path class="cls-22" d="M575.9,175.15c-8.33-2-17.53,1.33-22,3.29-3,3.21,6.2,4.86,13.67,5.47,4.45.35,11.48-3.28,13.76-6.62A16.59,16.59,0,0,0,575.9,175.15Z"/><path class="cls-21" d="M522,151.89a33,33,0,0,1,22.74-6.18c13.35,1.48-1.61,12.37-9.17,11.75S518.67,155.17,522,151.89Z"/><path class="cls-22" d="M543.9,148.7c-8.33-1.94-17.53,1.33-22,3.3-3,3.2,6.2,4.86,13.67,5.46,4.45.37,11.48-3.27,13.76-6.62A17,17,0,0,0,543.9,148.7Z"/><path class="cls-21" d="M609.4,167.66a55.68,55.68,0,0,1,39.84-.66c21.25,8-7.8,19.58-19.92,15.43S602.59,171.65,609.4,167.66Z"/><path class="cls-22" d="M646.63,171.56c-12.84-6.66-29.29-5.13-37.43-3.77-6.27,4,8.14,10.54,20.12,14.64,7.14,2.45,20.17-.58,25.31-5.12A28.78,28.78,0,0,0,646.63,171.56Z"/><path class="cls-21" d="M583.25,191.5a91.61,91.61,0,0,1,51.54-.67c27.48,8-10.1,19.59-25.77,15.44S574.45,195.48,583.25,191.5Z"/><path class="cls-22" d="M631.41,195.4c-16.61-6.66-37.88-5.13-48.42-3.77-8.11,4,10.53,10.54,26,14.64,9.23,2.45,26.08-.59,32.73-5.12A38,38,0,0,0,631.41,195.4Z"/><path class="cls-23" d="M626,310a11.17,11.17,0,0,1-4.6-.88c-2.49-1.12-7.67-3.47-17.09-44.86-4.5-19.75-11.82-48.37-11.82-44.77L603,223.73c6.08,35.73,15.9,76.21,21.15,79.32,2,.88,8.8-.06,16.3-6.38s21.53-27.55,11.17-67.86l7.34-8.67c11.29,44-5.87,74.61-14.22,81.64C638.56,307,631.49,310,626,310Z"/><path class="cls-23" d="M618,222.81,607.66,257l2,9.67s16-36.51,15.9-40.5S618,222.81,618,222.81Z"/><path class="cls-23" d="M640.1,238.37s11.37,19,16.7,20.22l-1.15,8.06S637,243.56,632.23,240.14Z"/></g><g id="Ipod"><path class="cls-21" d="M310.8,283.71a12.26,12.26,0,0,1-12,12.51H188.49a12.27,12.27,0,0,1-12-12.51V64.2a12.27,12.27,0,0,1,12-12.51H298.8a12.26,12.26,0,0,1,12,12.51Z"/><rect class="cls-24" x="176.49" y="51.69" width="134.31" height="234.54" rx="12"/><rect class="cls-25" x="192.56" y="73.94" width="101.42" height="90.76"/><circle class="cls-25" cx="243.24" cy="228.54" r="43.61"/><path class="cls-21" d="M267.42,228.54a24.18,24.18,0,1,1-24.18-24.18A24.18,24.18,0,0,1,267.42,228.54Z"/><polygon class="cls-26" points="286.86 51.69 277.06 51.69 277.06 30.02 281.96 30.02 286.86 30.02 286.86 51.69"/><path class="cls-25" d="M453.25,230.84H418.84a2,2,0,0,1-2-2V4H383.5V228.84a2,2,0,0,1-2,2H338.84a2,2,0,0,1-2-2V4H284V30a2,2,0,0,1-4,0V2a2,2,0,0,1,2-2h56.88a2,2,0,0,1,2,2V226.84H379.5V2a2,2,0,0,1,2-2h37.34a2,2,0,0,1,2,2V226.84h30.41V106.93a2,2,0,0,1,4,0V228.84A2,2,0,0,1,453.25,230.84Z"/><path class="cls-25" d="M453.25,104.93a2,2,0,0,0-2,2v88.14h4V106.93A2,2,0,0,0,453.25,104.93Z"/><path class="cls-25" d="M483.47,115.24a2,2,0,0,0-2.55,1.21l-29.67,83,3.76,1.34,29.67-83A2,2,0,0,0,483.47,115.24Z"/><path class="cls-27" d="M465.66,104.14a12.42,12.42,0,1,1-12.41-12.41A12.42,12.42,0,0,1,465.66,104.14Z"/><path class="cls-28" d="M460.11,104.14a6.86,6.86,0,1,1-6.86-6.86A6.86,6.86,0,0,1,460.11,104.14Z"/><path class="cls-27" d="M496.12,114.09a12.42,12.42,0,1,1-12.42-12.41A12.42,12.42,0,0,1,496.12,114.09Z"/><path class="cls-28" d="M490.56,114.09a6.86,6.86,0,1,1-6.86-6.85A6.87,6.87,0,0,1,490.56,114.09Z"/></g></g></g></g></g></svg>