<svg xmlns="http://www.w3.org/2000/svg" viewBox="0 0 1184.52 1003.86"><defs><style>.cls-1{fill:#fbb040;}.cls-2{fill:#e6e6e6;}.cls-10,.cls-11,.cls-12,.cls-13,.cls-2,.cls-3,.cls-4,.cls-5,.cls-6,.cls-8,.cls-9{fill-rule:evenodd;}.cls-15,.cls-3{fill:#fff;}.cls-4{fill:#039;}.cls-5{fill:#042c7d;}.cls-6{fill:#0e47b8;}.cls-7{fill:#231915;}.cls-8{fill:#c30;}.cls-9{fill:#900;}.cls-10{fill:#f63;}.cls-11{fill:#093;}.cls-12{fill:#033;}.cls-13{fill:#3c6;}.cls-14{fill:#58595b;}.cls-15,.cls-25{opacity:0.3;}.cls-16{fill:#6d6e71;}.cls-17,.cls-25,.cls-28{fill:#231f20;}.cls-18{fill:#808285;}.cls-19{fill:#939598;}.cls-20{fill:#a7a9ac;}.cls-21{fill:#39b54a;}.cls-22{fill:#2bb673;}.cls-23{fill:#006838;}.cls-24{fill:#009444;}.cls-26{fill:#27aae1;}.cls-27{fill:#d8b088;}.cls-28{opacity:0.7;}.cls-29{fill:#f15a29;}.cls-30{fill:#e6e7e8;}</style></defs><title>billiard</title><g id="Layer_2" data-name="Layer 2"><g id="Layer_1-2" data-name="Layer 1"><g id="Billiard"><g id="Billiard-2" data-name="Billiard"><g id="Ball"><path class="cls-1" d="M435.38,169.54A169.54,169.54,0,1,1,265.84,0,169.55,169.55,0,0,1,435.38,169.54Z"/><g id="Billiard-3" data-name="Billiard"><g id="Ball3"><path class="cls-2" d="M292.58,142.83a60.65,60.65,0,1,0-60.67-60.65,60.8,60.8,0,0,0,60.67,60.65Z"/><path class="cls-3" d="M285.61,130.14A51.45,51.45,0,1,0,234.15,78.7a51.59,51.59,0,0,0,51.46,51.44Z"/><path class="cls-4" d="M346.69,54.71a60.67,60.67,0,0,1-6.34,64.84c-21.48-3.35-59.13-7-95.53,0a60.63,60.63,0,0,1-4.68-67.9c22.87-3.56,64.16-7.11,106.55,3.06Z"/><path class="cls-5" d="M346.69,54.71a60.67,60.67,0,0,1-6.34,64.84c-5.16-.77-11.23-1.6-18.06-2.3h0c25.17-29.22,6.83-65.95,6.83-66,5.79.91,11.65,2,17.57,3.48Z"/><path class="cls-2" d="M273.41,110.06A26.73,26.73,0,1,0,246.7,83.29a26.78,26.78,0,0,0,26.71,26.77Z"/><path class="cls-2" d="M268,109.51a26.77,26.77,0,0,1-2.79-51.66c5.58,5.09,9.41,15.48,9.41,27.4,0,9.9-2.58,18.61-6.62,24.26Z"/><path class="cls-6" d="M322.7,58.27c8.37.9,15.07,3.06,14.86,4.74s-7.12,2.3-15.55,1.4S307,61.33,307.08,59.66s7.18-2.3,15.62-1.39Z"/><path class="cls-3" d="M274.73,110.06h-1.32a26.77,26.77,0,0,1-26.22-21.67,15,15,0,0,1,10.73-4.67c9.49,0,17.23,9.68,17.23,21.68a25.56,25.56,0,0,1-.42,4.66Z"/><path class="cls-7" d="M258,72.67v-3.3h18.09V72a38.07,38.07,0,0,0-5.28,7.55,46.39,46.39,0,0,0-4.06,9.68A36.39,36.39,0,0,0,265.4,97h-3.53a34.3,34.3,0,0,1,1.3-8,41.71,41.71,0,0,1,3.55-9,38.9,38.9,0,0,1,4.93-7.31Z"/></g><g id="Ball2"><path class="cls-2" d="M191.68,250.44A60.4,60.4,0,1,0,131.26,190a60.55,60.55,0,0,0,60.42,60.4Z"/><path class="cls-3" d="M184.73,237.81a51.24,51.24,0,1,0-51.25-51.24,51.39,51.39,0,0,0,51.25,51.24Z"/><path class="cls-8" d="M245.57,162.68a60.42,60.42,0,0,1-6.32,64.57c-21.39-3.33-58.89-7-95.14,0a60.41,60.41,0,0,1-4.66-67.62c22.78-3.54,63.89-7.08,106.12,3.05Z"/><path class="cls-9" d="M245.57,162.68a60.42,60.42,0,0,1-6.32,64.57c-5.14-.76-11.18-1.59-18-2.29h0c25.07-29.09,6.81-65.68,6.81-65.75,5.76.9,11.6,2,17.5,3.47Z"/><path class="cls-2" d="M172.58,217.81A26.63,26.63,0,1,0,146,191.15a26.67,26.67,0,0,0,26.6,26.66Z"/><path class="cls-2" d="M167.16,217.26a26.67,26.67,0,0,1-2.78-51.45c5.56,5.06,9.38,15.41,9.38,27.28,0,9.86-2.57,18.54-6.6,24.17Z"/><path class="cls-10" d="M221.68,166.22c8.33.91,15,3.06,14.79,4.72s-7.08,2.3-15.49,1.39-15-3.05-14.86-4.72,7.16-2.29,15.56-1.39Z"/><path class="cls-3" d="M173.9,217.81h-1.32a26.67,26.67,0,0,1-26.12-21.59,15,15,0,0,1,10.7-4.66c9.45,0,17.16,9.66,17.16,21.6a25.61,25.61,0,0,1-.42,4.65Z"/><path class="cls-7" d="M174.71,183.76l-3.4.26a6.46,6.46,0,0,0-1.29-2.93,4.52,4.52,0,0,0-3.42-1.45,4.7,4.7,0,0,0-2.87.91,7.75,7.75,0,0,0-2.54,3.43,18.12,18.12,0,0,0-1,6.44,8.05,8.05,0,0,1,3-2.8,8.22,8.22,0,0,1,3.74-.91,7.74,7.74,0,0,1,5.82,2.52,9,9,0,0,1,2.4,6.51,10.78,10.78,0,0,1-1.12,4.87,8.32,8.32,0,0,1-3.11,3.44,8.56,8.56,0,0,1-4.48,1.2,8.75,8.75,0,0,1-7-3.15q-2.7-3.14-2.7-10.36c0-5.37,1-9.29,3-11.73a8.57,8.57,0,0,1,7-3.19,7.48,7.48,0,0,1,7.9,6.94Zm-14,12a7.92,7.92,0,0,0,.75,3.37,5.55,5.55,0,0,0,2.1,2.46,5.28,5.28,0,0,0,2.83.85,4.78,4.78,0,0,0,3.72-1.75,6.89,6.89,0,0,0,1.56-4.75,6.43,6.43,0,0,0-1.54-4.55,5.06,5.06,0,0,0-3.87-1.66,5.32,5.32,0,0,0-3.94,1.66A6,6,0,0,0,160.75,195.76Z"/></g><g id="Ball1"><path class="cls-2" d="M340.35,280.4a63.15,63.15,0,1,0-63.16-63.14,63.3,63.3,0,0,0,63.16,63.14Z"/><path class="cls-3" d="M333.09,267.19a53.57,53.57,0,1,0-53.58-53.56,53.72,53.72,0,0,0,53.58,53.56Z"/><path class="cls-11" d="M396.69,188.66a63.13,63.13,0,0,1-6.61,67.5c-22.36-3.48-61.56-7.33-99.46,0a63.15,63.15,0,0,1-4.86-70.7c23.81-3.7,66.79-7.4,110.93,3.2Z"/><path class="cls-12" d="M396.69,188.66a63.13,63.13,0,0,1-6.61,67.5c-5.37-.8-11.69-1.67-18.8-2.4h0c26.21-30.41,7.11-68.66,7.11-68.73,6,.94,12.13,2.11,18.3,3.63Z"/><path class="cls-2" d="M320.39,246.29a27.84,27.84,0,1,0-27.81-27.87,27.88,27.88,0,0,0,27.81,27.87Z"/><path class="cls-2" d="M314.72,245.71a27.87,27.87,0,0,1-2.9-53.78c5.81,5.29,9.8,16.11,9.8,28.52,0,10.31-2.69,19.37-6.9,25.26Z"/><path class="cls-13" d="M371.72,192.36c8.7.94,15.68,3.19,15.46,4.94s-7.41,2.39-16.19,1.44-15.68-3.19-15.54-4.93,7.48-2.4,16.27-1.45Z"/><path class="cls-3" d="M321.76,246.29h-1.37a27.88,27.88,0,0,1-27.3-22.57,15.69,15.69,0,0,1,11.17-4.87c9.88,0,17.94,10.09,17.94,22.58a26.15,26.15,0,0,1-.44,4.86Z"/><path class="cls-7" d="M304.07,225l3.75-.31a6.72,6.72,0,0,0,1.94,4.11,5.2,5.2,0,0,0,3.66,1.38,5.69,5.69,0,0,0,4.37-1.94,7.34,7.34,0,0,0,1.78-5.16,6.63,6.63,0,0,0-1.71-4.82,6,6,0,0,0-4.5-1.77,6.28,6.28,0,0,0-3.12.78,6.21,6.21,0,0,0-2.18,2l-3.35-.44L307.53,204H322v3.41H310.38l-1.56,7.82a9.49,9.49,0,0,1,5.49-1.82,8.67,8.67,0,0,1,6.43,2.63,9.25,9.25,0,0,1,2.63,6.79,10.59,10.59,0,0,1-2.31,6.83,9.24,9.24,0,0,1-7.64,3.53,9.38,9.38,0,0,1-6.48-2.22A8.66,8.66,0,0,1,304.07,225Z"/></g></g></g><g id="Billiard_Table" data-name="Billiard Table"><path class="cls-14" d="M771.68,689.51c0,10.55-16.9,19.12-37.77,19.12s-37.76-8.57-37.76-19.12,16.91-19.11,37.76-19.11S771.68,679,771.68,689.51Z"/><path class="cls-15" d="M727.68,670.66c-17.89,1.51-31.53,9.37-31.53,18.85,0,8.71,11.5,16,27.24,18.35-.86-.64-1.78-1.3-2.78-2C700.72,692.23,717.56,677.18,727.68,670.66Z"/><path class="cls-14" d="M1031.07,765.81c0,10.56-16.91,19.12-37.77,19.12s-37.77-8.56-37.77-19.12,16.91-19.11,37.77-19.11S1031.07,755.26,1031.07,765.81Z"/><path class="cls-15" d="M987.07,747c-17.89,1.5-31.54,9.36-31.54,18.84,0,8.71,11.51,16.05,27.24,18.36-.85-.65-1.77-1.31-2.77-2C960.11,768.53,977,753.48,987.07,747Z"/><path class="cls-14" d="M500.92,984.75c0,10.55-16.92,19.11-37.78,19.11s-37.76-8.56-37.76-19.11,16.91-19.12,37.76-19.12S500.92,974.19,500.92,984.75Z"/><path class="cls-15" d="M456.91,965.89c-17.89,1.51-31.53,9.37-31.53,18.86,0,8.7,11.5,16,27.23,18.35-.85-.65-1.77-1.31-2.77-2C430,987.46,446.79,972.42,456.91,965.89Z"/><path class="cls-16" d="M1003.6,598.83l-16.46,170L951,754.19s-33.63-58.71-182.26-70.34H741.25l25.08-29.29Z"/><path class="cls-14" d="M176.83,696l12.1,149.9s20.19,12.84,32.11,15.29,29.36-.61,52.3,11.62S399.13,953.39,415,973.37L442,987.64l-6.6-210.46Z"/><polygon class="cls-17" points="1161.45 549.29 428.7 779.27 431.55 669.99 1174.91 471.69 1161.45 549.29"/><path class="cls-18" d="M431.55,670s-56.68,16.31-93.37,0l13,109.28s34.57,13.47,77.48,0Z"/><polygon class="cls-18" points="1161.45 549.29 1170.17 545.47 1183.7 469.41 1174.91 471.69 1161.45 549.29"/><path class="cls-18" d="M359.28,635.23,323.19,652s42.2,32.73,130.59,2.76l-29.37-19.57S382.52,662.14,359.28,635.23Z"/><polygon class="cls-17" points="338.18 669.99 351.23 779.27 19.71 621.05 7.48 532.16 338.18 669.99"/><polygon class="cls-18" points="19.71 621.05 14.31 617.79 1.23 529.64 7.48 532.16 19.71 621.05"/><path class="cls-14" d="M385.91,650.05a39.52,39.52,0,0,1-15.37-2.93c-7.92-3.31-12.4-8.7-13.05-11.48-1.34-5.73,4.25-11.25,4.48-11.48l2.56,2.63-1.28-1.31,1.28,1.31c-1.21,1.19-4.19,4.94-3.47,8,.34,1.44,3.95,6,10.89,8.93,9.43,3.94,25.86,5.42,50.8-9.63l1.49-8.92,3.62.6-1.77,10.57-.71.44C409,646.82,395.94,650.05,385.91,650.05Z"/><polygon class="cls-14" points="361.97 624.16 83.12 516.26 54.06 516.26 24.4 527.58 323.19 651.34 358.56 635.94 361.97 624.16"/><path class="cls-19" d="M24.4,527.58,2.69,519.47s-1.89-3.36,4.79-7S42.29,502.5,57,499.13l-2.4,17.13Z"/><path class="cls-17" d="M90.87,502.4s-3.47,13.45-13.36,13.15-22.94.71-22.94.71-16.1-11.31.92-13.86S90.87,502.4,90.87,502.4Z"/><path class="cls-20" d="M3,516.26s-5.4,5.25-1.81,13.38L338.18,670s34.45,17.33,93.37,0c0,0,747.68-197.8,752.15-200.58,0,0,1.85-4.94,0-8.81,0,0-733.59,196.75-752.15,199.19s-43.22,18-109.28-9.74S3,516.26,3,516.26Z"/><polygon class="cls-14" points="453.42 654.56 425.38 636.79 427.86 626.35 1111.91 455.4 1139.94 456.29 1163.85 465.92 456.83 654.56 453.42 654.56"/><polygon class="cls-14" points="1132.71 445.1 802.53 377.7 806.7 385.52 1109.27 445.43 1132.71 446.23 1132.71 445.1"/><path class="cls-18" d="M1163.85,465.92l19.85-5.32s-8-8.79-30.2-11.16c0,0,4.53,7.42-13.56,6.85Z"/><path class="cls-17" d="M1111.91,455.4s47,6.62,42-5.91a133.9,133.9,0,0,0-20.31-4c-9.58-.91-26.09,0-26.09,0s2.75,8.77,1.43,9.28S1111.91,455.4,1111.91,455.4Z"/><path class="cls-14" d="M229.81,857.61c0,10.56-16.91,19.12-37.77,19.12s-37.77-8.56-37.77-19.12S171.18,838.5,192,838.5,229.81,847.06,229.81,857.61Z"/><path class="cls-15" d="M185.8,838.76c-17.89,1.51-31.53,9.37-31.53,18.85,0,8.7,11.51,16,27.24,18.35-.86-.63-1.77-1.3-2.77-2C158.84,860.33,175.68,845.29,185.8,838.76Z"/><polygon class="cls-21" points="90.09 502.3 89.91 502.44 72.72 515.5 83.98 516.6 361.97 624.16 364.53 626.79 367.84 625.44 367.84 619.78 88.93 512.9 90.09 502.3"/><path class="cls-22" d="M363.26,625.48s-9.95,12.19,7.18,19.07,39.15,0,41-1.37,10.25-4.79,11.27-7.14,5.17-9.69,5.17-9.69l684.05-171-2.65-10-18.35,1.51-2.45,9.35L970.92,432.16l-163.3-35.38-39.46,2L105.67,519.32Z"/><polygon class="cls-22" points="90.09 502.3 459.38 436.91 466.01 442.25 110.64 507.08 103.77 518.59 87.7 513.35 90.09 502.3"/><polygon class="cls-22" points="492.9 448.89 494.72 430.64 769.84 381.85 769.84 389.34 498.43 437.36 496.97 448.14 492.9 448.89"/><path class="cls-17" d="M768.16,398.82s-.15-17.43,2.76-20.49,35.32-4.43,37.15,3.52v15.6Z"/><path class="cls-16" d="M57.27,499.08l-.3.05-.46,3.31c4-1.68,33.4,0,33.4,0L769.45,381.92l7.21-5.31Z"/><polygon class="cls-23" points="102.69 519.32 110.64 507.08 466.01 442.25 465.43 453.88 101.36 520.23 102.69 519.32"/><polygon class="cls-23" points="498.43 437.36 496.97 448.14 769.49 398.82 768.46 389.59 498.43 437.36"/><polygon class="cls-17" points="459.38 436.91 466.01 442.25 465.43 453.88 492.9 448.89 494.72 430.64 459.38 436.91"/><path class="cls-19" d="M494.45,754.5l.72,225.19s.4,4.89-8.16,4.07S483.34,967,483.34,967l1.31-208.32Z"/><polygon class="cls-24" points="1109.27 445.43 1090.91 446.94 808.07 389.59 808.07 385.21 1109.27 445.43"/><polygon class="cls-23" points="1090.91 446.94 1088.46 456.29 808.07 397.45 808.07 389.59 1090.91 446.94"/><polygon class="cls-20" points="435.61 777.1 441.95 987.3 461.73 987.64 471.21 984.48 464.48 765.81 435.61 777.1"/><polygon class="cls-18" points="464.48 765.81 487.11 757.87 487.01 983.76 470.41 984.75 464.48 765.81"/><path class="cls-18" d="M1003.6,598.83l-16.46,170s16.82,5.2,20.79,0l15.16-176.16Z"/><path class="cls-16" d="M1023.09,592.71l14.66-4.6-19.42,178.11s-1.78,4-11.29,3.51Z"/><path class="cls-25" d="M744.39,680.19l-3.14,3.66h27.53c41.35,3.23,73.79,10.11,99.09,18.36h0L1003.6,598.83Z"/></g><g id="Stick"><path class="cls-26" d="M252.06,447.11c-.34.15-1-.57-1.47-1.62h0c-.48-1.06-.58-2-.24-2.18l1.76-.8c.34-.15,1,.58,1.48,1.62h0c.47,1.06.57,2,.23,2.18Z"/><path class="cls-27" d="M251.29,443l1.65,3.66a55.35,55.35,0,0,0,6.44-2.44L1120.13,70.45a15.2,15.2,0,0,0-12.48-27.71L257.41,439.64A42.49,42.49,0,0,0,251.29,443Z"/><path class="cls-28" d="M1127.74,50.36a15.2,15.2,0,0,0-20.09-7.62L924.2,128.38,824.41,180,1019,95.44,828.61,189.3,939,149.1l181.1-78.65A15.18,15.18,0,0,0,1127.74,50.36Z"/><polygon class="cls-29" points="1050.82 69.27 1062.61 95.43 1068.02 93.09 1056.16 66.78 1050.82 69.27"/><polygon class="cls-30" points="1057.43 66.3 1069.22 92.45 1074.62 90.1 1062.77 63.8 1057.43 66.3"/><path class="cls-26" d="M120.42,446.89c-.34.16-1-.57-1.48-1.62h0c-.47-1-.58-2-.23-2.18l1.75-.79c.34-.15,1,.57,1.48,1.62h0c.48,1.05.58,2,.23,2.18Z"/><path class="cls-27" d="M119.64,442.83l1.65,3.65a52,52,0,0,0,6.45-2.44L988.48,70.23A15.19,15.19,0,0,0,976,42.53L125.76,439.43A40.65,40.65,0,0,0,119.64,442.83Z"/><path class="cls-28" d="M996.09,50.14A15.18,15.18,0,0,0,976,42.53L792.56,128.16l-99.79,51.59L887.31,95.23,697,189.08l110.42-40.2L988.48,70.23A15.18,15.18,0,0,0,996.09,50.14Z"/><polygon class="cls-29" points="919.18 69.06 930.96 95.22 936.37 92.87 924.52 66.56 919.18 69.06"/><polygon class="cls-30" points="925.79 66.08 937.57 92.24 942.98 89.89 931.13 63.59 925.79 66.08"/></g></g></g></g></g></svg>