<svg xmlns="http://www.w3.org/2000/svg" viewBox="0 0 1368 1327.33"><defs><style>.cls-1{fill:#001f54;}.cls-2{fill:#fff;}.cls-2,.cls-3,.cls-4,.cls-5,.cls-6,.cls-7,.cls-8,.cls-9{fill-rule:evenodd;}.cls-3{fill:#e6e6e6;}.cls-4{fill:#900;}.cls-5{fill:#c30;}.cls-6,.cls-8{opacity:0.1;}.cls-7{fill:#fbb040;}.cls-8,.cls-9{fill:#231f20;}.cls-9{opacity:0.3;}</style></defs><title>bowling</title><g id="Layer_2" data-name="Layer 2"><g id="Layer_1-2" data-name="Layer 1"><g id="Bowling"><g id="Background"><ellipse id="Background_2" data-name="Background 2" class="cls-1" cx="684" cy="663.67" rx="684" ry="663.67"/></g><g id="Bowling-2" data-name="Bowling"><g id="Target"><path class="cls-2" d="M466.21,299.81c2.39-.18,57.73-3.6,48.36,55.57-9.59,60.44-24,151.19.87,175.91,25,24.72,84.75,82.63,57.74,202.07-26.81,119.25-47.93,158.22-47.93,158.22H407.16S386,852.61,359,733.36C332.22,613.92,391.69,556,416.75,531.29s10.68-115.47.87-175.91c-9.37-59.17,46.19-55.75,48.59-55.57Z"/><path class="cls-3" d="M466.21,299.81c2.39-.18,57.73-3.6,48.36,55.57-9.59,60.44-24,151.19.87,175.91,25,24.72,84.75,82.63,57.74,202.07-26.81,119.25-47.93,158.22-47.93,158.22H482.54C561.19,665.69,532.43,617.89,494.09,567c-38.56-50.87-9.8-121.78-9.8-188.54,0-51.58-20.92-69.46-31.59-77.93a48.48,48.48,0,0,1,13.51-.73Z"/><path class="cls-4" d="M502.8,445.23c-.65,7.76-.87,15.16-1.09,22.37h-71c-.22-7.21-.65-14.61-1.3-22.37Z"/><path class="cls-5" d="M501.71,482.76a197.27,197.27,0,0,0,2.19,21.46H428.3a128,128,0,0,0,2.17-21.46Z"/><path class="cls-2" d="M696.91,293.32c2.4-.18,58-3.43,48.37,55.75-9.58,60.45-24,151.19,1.09,175.73,25,24.72,84.52,82.8,57.73,202.06-27,119.43-48.14,158.4-48.14,158.4H637.88s-21.13-39-47.93-158.4c-27-119.26,32.67-177.34,57.52-202.06,25-24.54,10.67-115.28,1.08-175.73-9.37-59.18,46-55.93,48.36-55.75Z"/><path class="cls-3" d="M696.91,293.32c2.4-.18,58-3.43,48.37,55.75-9.58,60.45-24,151.19,1.09,175.73,25,24.72,84.52,82.81,57.73,202.07C777.09,846.3,756,885.26,756,885.26H713.25c78.87-225.87,49.89-273.68,11.55-324.56-38.34-51.06-9.59-121.78-9.59-188.72,0-51.42-21.13-69.46-31.58-77.93a70.39,70.39,0,0,1,13.28-.73Z"/><path class="cls-4" d="M733.51,438.92c-.43,7.57-.87,15.15-1.08,22.19h-71c-.21-7-.65-14.62-1.09-22.19Z"/><path class="cls-5" d="M732.64,476.26a157.86,157.86,0,0,0,2,21.47H659.23a159.48,159.48,0,0,0,2-21.47Z"/><path class="cls-2" d="M924.73,310.91c2.4-.18,57.74-3.61,48.37,55.57-9.59,60.43-24,151.19,1.08,175.9C999,567.09,1058.71,625,1031.7,744.44c-26.8,119.26-47.93,158.23-47.93,158.23H865.69s-21.13-39-47.93-158.23c-27-119.43,32.67-177.35,57.51-202.06,25.06-24.71,10.68-115.47,1.1-175.9-9.38-59.18,46-55.75,48.36-55.57Z"/><path class="cls-4" d="M961.33,456.33c-.43,7.75-.87,15.15-1.09,22.37h-71c-.22-7.22-.65-14.62-1.09-22.37Z"/><path class="cls-5" d="M960.46,493.85a157.71,157.71,0,0,0,2,21.47H887a157.71,157.71,0,0,0,2-21.47Z"/><path class="cls-6" d="M924.73,310.91c2.4-.18,57.74-3.61,48.37,55.57-9.59,60.43-24,151.19,1.08,175.9C999,567.09,1058.71,625,1031.7,744.44c-26.8,119.26-47.93,158.23-47.93,158.23h-42.7C1019.93,676.79,991,629,952.61,578.1,914.05,527.23,943,456.33,943,389.57c0-51.6-21.12-69.46-31.59-77.94a47.16,47.16,0,0,1,13.29-.72Z"/></g><g id="Ball"><path class="cls-7" d="M685.43,1211.4c-122.21,0-222-99.53-222-221.94,0-122.2,99.76-221.94,222-221.94s222,99.74,222,221.94c0,122.41-99.77,221.94-222,221.94Z"/><path class="cls-8" d="M685.43,767.52c-122.21,0-222,99.74-222,221.94,0,122.41,99.76,221.94,222,221.94s222-99.53,222-221.94C907.43,867.26,807.66,767.52,685.43,767.52Zm-28.5,416.24c-100.84,0-182.89-82-182.89-182.86C474,900.3,556.09,818,656.93,818c100.64,0,182.91,82.26,182.91,182.86C839.84,1101.72,757.57,1183.76,656.93,1183.76Z"/><path class="cls-9" d="M577.9,983.85A20,20,0,1,1,598,963.76a20.18,20.18,0,0,1-20.08,20.09Z"/><path class="cls-9" d="M562.13,1049.05A20,20,0,1,1,582.22,1029a20,20,0,0,1-20.09,20.09Z"/><path class="cls-9" d="M511.61,1000.9a20,20,0,0,1,0-39.94,20,20,0,1,1,0,39.94Z"/><path class="cls-7" d="M300.06,1049.05c-100.09,0-181.79-81.52-181.79-181.77,0-100.08,81.7-181.76,181.79-181.76S481.87,767.2,481.87,867.28c0,100.25-81.71,181.77-181.81,181.77Z"/><path class="cls-8" d="M300.06,685.52c-100.09,0-181.79,81.68-181.79,181.76,0,100.25,81.7,181.77,181.79,181.77s181.81-81.52,181.81-181.77C481.87,767.2,400.16,685.52,300.06,685.52Zm-23.34,340.89c-82.59,0-149.79-67.19-149.79-149.76,0-82.4,67.2-149.76,149.79-149.76,82.42,0,149.8,67.36,149.8,149.76C426.52,959.22,359.14,1026.41,276.72,1026.41Z"/><path class="cls-9" d="M212,862.69a16.36,16.36,0,1,1,16.44-16.46A16.53,16.53,0,0,1,212,862.69Z"/><path class="cls-9" d="M199.09,916.08a16.36,16.36,0,1,1,16.44-16.45,16.37,16.37,0,0,1-16.44,16.45Z"/><path class="cls-9" d="M157.7,876.65a16.36,16.36,0,0,1,0-32.71,16.36,16.36,0,1,1,0,32.71Z"/><path class="cls-7" d="M1067.17,1049.05c-100.09,0-181.79-81.52-181.79-181.77,0-100.08,81.7-181.76,181.79-181.76S1249,767.2,1249,867.28c0,100.25-81.71,181.77-181.81,181.77Z"/><path class="cls-8" d="M1067.17,685.52c-100.09,0-181.79,81.68-181.79,181.76,0,100.25,81.7,181.77,181.79,181.77S1249,967.53,1249,867.28C1249,767.2,1167.27,685.52,1067.17,685.52Zm-23.34,340.89c-82.59,0-149.79-67.19-149.79-149.76,0-82.4,67.2-149.76,149.79-149.76,82.42,0,149.8,67.36,149.8,149.76C1193.63,959.22,1126.25,1026.41,1043.83,1026.41Z"/><path class="cls-9" d="M979.11,862.69a16.36,16.36,0,1,1,16.44-16.46,16.53,16.53,0,0,1-16.44,16.46Z"/><path class="cls-9" d="M966.2,916.08a16.36,16.36,0,1,1,16.44-16.45,16.37,16.37,0,0,1-16.44,16.45Z"/><path class="cls-9" d="M924.81,876.65a16.36,16.36,0,0,1,0-32.71,16.36,16.36,0,1,1,0,32.71Z"/></g></g></g></g></g></svg>