<svg xmlns="http://www.w3.org/2000/svg" viewBox="0 0 1091.04 1131.51"><defs><style>.cls-1{fill:#414042;}.cls-2,.cls-3{fill:#231f20;}.cls-2{opacity:0.3;}.cls-4{fill:#e6e7e8;}.cls-5{fill:#efc79e;}.cls-6{fill:#1c75bc;}</style></defs><title>chess</title><g id="Layer_2" data-name="Layer 2"><g id="Layer_1-2" data-name="Layer 1"><g id="Chess"><g id="Chess-2" data-name="Chess"><g id="Chess-3" data-name="Chess"><path class="cls-1" d="M227.28,562.86l8-7.66c-7-2.67-24-32-24-32V501.86h-7v-7.34c-17.33-22-13.67-95-13.67-95s23.34-4,24-10.66-10.33-5.67-15.53-13-.13-8.33,2.87-11.34-2.87-4.66-2.87-4.66,13.86-13.34,17.87-38-36-60.67-36-60.67c9.17-15.16-10-17.5-10-17.5s-19.16,2.34-10,17.5c0,0-40,36-36,60.67s17.87,38,17.87,38-5.86,1.66-2.87,4.66,8.06,4,2.87,11.34-16.2,6.33-15.53,13,24,10.66,24,10.66,3.66,73-13.67,95v7.34h-7v21.33s-17,29.34-24,32l8,7.66s-8.67.33-8,15.33H235.28C235.94,563.19,227.28,562.86,227.28,562.86Z"/><path class="cls-2" d="M235.28,578.19c.66-15-8-15.33-8-15.33l8-7.66c-7-2.67-24-32-24-32V501.86h-7v-7.34c-17.33-22-13.67-95-13.67-95s23.34-4,24-10.66-10.33-5.67-15.53-13-.13-8.33,2.87-11.34-2.87-4.66-2.87-4.66,13.86-13.34,17.87-38-36-60.67-36-60.67c9.17-15.16-10-17.5-10-17.5v334.5Z"/><path class="cls-1" d="M462,379.08c-14.23-13.77-19.11-24.89-32.45-35.56s-19.11-6.22-19.11-6.22l-1.78-12.89H395.3l-4.45-21.77-17.78,20.44c-17.78,7.12-39.55,24.45-46.66,42.67S314,395.53,323.68,429.3s19.06,53.89,18.73,68.23-5.16,13.33-5.16,13.33V519l-3.51,3.51v21a49.14,49.14,0,0,0-6,6.67c-2.67,3.66,1.34,10,1.34,10-6.34,2.34-5.34,16.89-5.34,16.89H449.1V563.27l-2.86-2.85v-5.06c-2.67-5-13.17-12.67-13.17-12.67V516.86c2.67-4.89,9.35-25.78-3.77-57.34s-47.11-51.33-47.11-51.33c20.66,7.34,43.33-5.77,43.33-5.77,10.66,5.11,11.11,14.44,11.11,14.44l6.67-2.67,12.89,2.22C469.08,418.64,476.19,392.86,462,379.08Zm-49.33-24s4.23-3.78,12.45,4.22C425.09,359.3,414.86,364.19,412.64,355.08Z"/><path class="cls-3" d="M333.76,418.19c-24-63.33,39.31-95.11,39.31-95.11-17.78,7.12-39.55,24.45-46.66,42.67S314,395.53,323.68,429.3s19.06,53.89,18.73,68.23-5.16,13.33-5.16,13.33V519l-3.51,3.51v21a49.14,49.14,0,0,0-6,6.67c-2.67,3.66,1.34,10,1.34,10-6.34,2.34-5.34,16.89-5.34,16.89h20C371.09,479.3,357.75,481.52,333.76,418.19Z"/><path class="cls-1" d="M617.83,371.47A42.45,42.45,0,1,1,575.38,329,42.44,42.44,0,0,1,617.83,371.47Z"/><path class="cls-1" d="M631.55,558.58c3.16-1,7.83-4.67,1.67-7.83s-16.34-27.83-16.34-27.83h-5.5v-11s-20.33-31-23.33-45.66-2-16.33,4.33-24.34,13.67-5.66,22.33-12.66-39.33-8-39.33-8h0s-48,1-39.33,8,16,4.67,22.33,12.67,7.34,9.67,4.33,24.34-23.33,45.66-23.33,45.66v11h-5.5s-10.16,24.66-16.33,27.83-1.5,6.83,1.66,7.83v4.34l-3.91,3.91v10.25H635.47V566.83l-3.92-3.91Z"/><path class="cls-2" d="M617.83,371.47A42.45,42.45,0,0,0,575.38,329v84.89A42.44,42.44,0,0,0,617.83,371.47Z"/><path class="cls-2" d="M633.22,550.75c-6.17-3.17-16.34-27.83-16.34-27.83h-5.5v-11s-20.33-31-23.33-45.66-2-16.33,4.33-24.34,13.67-5.66,22.33-12.66-39.33-8-39.33-8V577.08h60.09V566.83l-3.92-3.91v-4.34C634.71,557.58,639.38,553.91,633.22,550.75Z"/></g><g id="Board"><rect class="cls-4" x="159.31" y="441.91" width="530.11" height="848.17" transform="translate(-442.09 1289.44) rotate(-89.94)"/><polygon class="cls-3" points="742.6 707.3 848.61 707.41 848.73 601.4 742.71 601.28 742.6 707.3"/><rect class="cls-4" x="636.63" y="601.22" width="106.02" height="106.03" transform="translate(34.69 1343.19) rotate(-89.94)"/><rect class="cls-3" x="530.6" y="601.11" width="106.02" height="106.02" transform="translate(-71.12 1237.05) rotate(-89.94)"/><rect class="cls-4" x="424.59" y="601" width="106.02" height="106.02" transform="translate(-176.91 1130.92) rotate(-89.94)"/><rect class="cls-3" x="318.57" y="600.89" width="106.02" height="106.02" transform="translate(-282.75 1024.71) rotate(-89.93)"/><rect class="cls-4" x="212.54" y="600.77" width="106.02" height="106.02"/><polygon class="cls-3" points="106.47 706.63 212.49 706.74 212.6 600.72 106.58 600.59 106.47 706.63"/><polygon class="cls-4" points="0.44 706.5 106.47 706.63 106.58 600.59 0.55 600.49 0.44 706.5"/><polygon class="cls-3" points="106.36 812.65 0.33 812.54 0.44 706.5 106.47 706.63 106.36 812.65"/><rect class="cls-4" x="106.41" y="706.69" width="106.03" height="106.02" transform="translate(-600.45 918.28) rotate(-89.94)"/><polygon class="cls-3" points="318.39 812.86 212.37 812.77 212.49 706.74 318.51 706.84 318.39 812.86"/><rect class="cls-4" x="318.46" y="706.9" width="106.01" height="106.03" transform="translate(-388.86 1130.53) rotate(-89.94)"/><rect class="cls-3" x="424.48" y="707.02" width="106.01" height="106.02" transform="translate(-283.07 1236.67) rotate(-89.94)"/><polygon class="cls-4" points="636.47 813.2 530.44 813.09 530.55 707.08 636.57 707.19 636.47 813.2"/><rect class="cls-3" x="636.52" y="707.24" width="106.02" height="106.03" transform="translate(-71.48 1448.94) rotate(-89.94)"/><polygon class="cls-4" points="848.52 813.43 742.49 813.32 742.6 707.3 848.61 707.41 848.52 813.43"/><polygon class="cls-3" points="742.38 919.34 848.4 919.45 848.52 813.43 742.49 813.32 742.38 919.34"/><polygon class="cls-4" points="636.36 919.23 742.38 919.34 742.49 813.32 636.47 813.2 636.36 919.23"/><rect class="cls-3" x="530.38" y="813.15" width="106.03" height="106.03" transform="translate(-283.37 1448.66) rotate(-89.94)"/><rect class="cls-4" x="424.36" y="813.04" width="106.03" height="106.02" transform="translate(-389.2 1342.46) rotate(-89.94)"/><rect class="cls-3" x="318.34" y="812.92" width="106.03" height="106.03" transform="translate(-494.97 1236.38) rotate(-89.94)"/><polygon class="cls-4" points="212.26 918.78 318.29 918.89 318.39 812.86 212.37 812.77 212.26 918.78"/><polygon class="cls-3" points="106.24 918.68 212.26 918.78 212.37 812.77 106.36 812.65 106.24 918.68"/><polygon class="cls-4" points="0.21 918.56 106.24 918.68 106.36 812.65 0.33 812.54 0.21 918.56"/><rect class="cls-3" x="742.2" y="1025.42" width="106.03" height="106.03" transform="translate(-284.14 1872.39) rotate(-89.93)"/><rect class="cls-4" x="636.18" y="1025.3" width="106.02" height="106.04"/><polygon class="cls-3" points="530.11 1131.16 636.12 1131.28 636.24 1025.25 530.2 1025.15 530.11 1131.16"/><polygon class="cls-4" points="424.07 1131.06 530.11 1131.16 530.2 1025.15 424.19 1025.03 424.07 1131.06"/><polygon class="cls-3" points="318.06 1130.93 424.07 1131.06 424.19 1025.03 318.17 1024.93 318.06 1130.93"/><polygon class="cls-4" points="212.03 1130.83 318.06 1130.93 318.17 1024.93 212.15 1024.81 212.03 1130.83"/><rect class="cls-3" x="106.07" y="1024.75" width="106.02" height="106.02" transform="translate(-918.85 1235.71) rotate(-89.94)"/><polygon class="cls-4" points="0 1130.61 106.01 1130.72 106.13 1024.7 0.1 1024.58 0 1130.61"/><rect class="cls-3" x="0.16" y="918.62" width="106.02" height="106.03" transform="translate(-918.52 1023.67) rotate(-89.93)"/><polygon class="cls-4" points="212.15 1024.81 106.13 1024.7 106.24 918.68 212.26 918.78 212.15 1024.81"/><rect class="cls-3" x="212.2" y="918.84" width="106.03" height="106.03" transform="translate(-706.94 1235.93) rotate(-89.93)"/><rect class="cls-4" x="318.23" y="918.95" width="106.02" height="106.03"/><rect class="cls-3" x="424.24" y="919.07" width="106.03" height="106.01" transform="translate(-495.35 1448.26) rotate(-89.94)"/><polygon class="cls-4" points="636.24 1025.25 530.2 1025.15 530.33 919.12 636.36 919.23 636.24 1025.25"/><rect class="cls-3" x="636.3" y="919.28" width="106.02" height="106.02"/><polygon class="cls-4" points="848.28 1025.48 742.26 1025.35 742.38 919.34 848.4 919.45 848.28 1025.48"/></g><g id="Hand"><path class="cls-5" d="M824,91.7,662.85,56.78,598.07,5.47,541.71,0,505.54,25.66l8,9.26,40-5.05,26.08,7.56,26.91,39.13S496.28,53.42,497.55,53.42s-69.41,25.66-69.41,25.66l-50.47,37.85s5.15,22.71,33.91,16,44.33-26.5,44.33-26.5l43.74-1.26,45.85,20.61-96.74,11.78-85,88.32s21,23.14,49.62,0,45.85-40.8,45.85-40.8h83.28L479,252v68.14l33.44,72.55s23.75.63,19.44-35.95-11.87-51.11-11.87-51.11-5.28-12.62,11.87-34.7,120-39.12,133.87-3.78-46.69,82.12-46.69,82.12-26.5,28.92-6.94,61.72l46.06-40.37L763.8,315.89l51.31-45.43Z"/><polygon class="cls-4" points="842.14 63.94 813.42 63.94 813.42 301.17 870.63 301.17 870.63 63.94 842.14 63.94"/><rect class="cls-6" x="832.83" y="56.78" width="258.21" height="254.06"/></g></g></g></g></g></svg>