<svg xmlns="http://www.w3.org/2000/svg" viewBox="0 0 1030.85 947.17"><defs><style>.cls-1{fill:#29d3b2;}.cls-2{fill:#10b346;}.cls-14,.cls-15,.cls-16,.cls-17,.cls-18,.cls-19,.cls-2,.cls-20,.cls-3,.cls-4,.cls-5{fill-rule:evenodd;}.cls-3{fill:#0da33f;}.cls-4{fill:#02802c;}.cls-5{fill:#118036;}.cls-16,.cls-20,.cls-6{fill:#fff;}.cls-7{fill:#ffcc72;}.cls-8{fill:#f1f2f2;}.cls-9{fill:#e6e7e8;}.cls-10{fill:#d1d3d4;}.cls-11{fill:#232323;}.cls-12,.cls-17{fill:#231f20;}.cls-13{fill:#007b6b;}.cls-14{fill:#f15a29;}.cls-15{fill:#ad2e03;}.cls-16{opacity:0.1;}.cls-17{opacity:0.3;}.cls-18{fill:#e03f09;}.cls-19{fill:#900;}</style></defs><title>football</title><g id="Layer_2" data-name="Layer 2"><g id="Layer_1-2" data-name="Layer 1"><g id="Football"><g id="Background"><circle id="Background_2" data-name="Background 2" class="cls-1" cx="515.42" cy="443.33" r="443.33" transform="translate(-162.52 494.31) rotate(-45)"/></g><g id="Football-2" data-name="Football"><g id="Football_Field" data-name="Football Field"><polygon class="cls-2" points="431.17 405.73 1030.49 652.26 553.22 868.06 0 568.2 431.17 405.73"/><path class="cls-3" d="M499,433.63l531.49,218.63L585.55,853.4C559.94,723.61,521.43,540,499,433.63Z"/><polygon class="cls-4" points="0 568.2 553.22 868.06 553.22 947.17 0 631.24 0 568.2"/><polygon class="cls-5" points="1030.49 652.26 553.22 868.06 553.22 947.17 1030.85 710.71 1030.49 652.26"/><path class="cls-6" d="M447.42,441.22l496.17,204,9.89,4.24-9.89,4.41-395,178.72-2.12.89-1.94-1.05-458-248.31-9-4.94,9.53-3.53,357-134.4,1.59-.7ZM930,649.79,445.65,450.59,100,580.74,546.87,823Z"/><path class="cls-6" d="M178.58,552.84l91.68,43.27,207.19-86.19-96.62-39.37Zm90.79,46.8-95.91-45.21-3.71-1.77,3.89-1.59L380.3,467l.53-.18.7.18,101.22,41.33,4.06,1.58-4.06,1.59-212,88.13-.7.35Z"/><path class="cls-6" d="M541.21,736.5l94.15,48.39,204.72-91.48-96.62-39.2Zm92.38,51.74-97.5-50.33-3.53-1.59,3.71-1.59,206.66-84.06.53-.36.7.36,101.22,41.15,4.06,1.59-4.06,1.76Z"/><polygon class="cls-6" points="320.24 699.94 661.15 533.77 663.98 539.41 323.07 705.59 320.24 699.94"/><path class="cls-6" d="M505.18,566.44c29.5,0,56.17,5.12,75.59,13.6,20.32,8.82,32.69,21.19,32.69,35.14s-12.37,26.31-32.69,35c-19.42,8.48-46.09,13.6-75.59,13.6-29.32,0-56.17-5.12-75.6-13.6-20.14-8.65-32.68-21-32.68-35s12.54-26.32,32.68-35.14c19.43-8.48,46.28-13.6,75.6-13.6Zm73.13,19.24c-18.55-7.94-44.51-13.06-73.13-13.06s-54.41,5.12-73.12,13.06c-17.84,7.77-28.8,18.19-28.8,29.5,0,11.12,11,21.54,28.8,29.31,18.71,8.13,44.51,13.07,73.12,13.07s54.58-4.94,73.13-13.07c17.84-7.77,29-18.19,29-29.31,0-11.31-11.12-21.73-29-29.5Z"/><path class="cls-6" d="M91,579.15c-2.3-6.18,42.57-18.71,42.74-18.71l1.07-.36.7.88c0,.18,23.32,27.73-12,38.5l-.71.18-.7-.36-15.19-8.82h0l-15.2-10.6-.52-.18Zm42.57-15c-6.36,1.77-37.27,10.77-39.22,13.42l14.49,9.89,14.48,8.48c25.62-8.3,13.43-27.37,10.25-31.79Z"/><path class="cls-6" d="M423.22,458.53c6,3.89,23.32,12.54,43.28-2.48l-20.67-8.47ZM471.09,457c-28.09,23.66-52.29,2.65-52.46,2.65l-2.12-1.77,2.47-1.24,26-12.54.71-.35.89.35,24.2,9.9,2.65,1.05Z"/><path class="cls-6" d="M524.44,813.32c.17,0,28.08-22.43,47,1.58l1.41,1.77-1.94.88L547.4,829.92l-.89.35-.88-.52-21-13.6-2.12-1.25Zm42.91,2.12c-13.77-15.19-32.49-5-38.68-.71l18,11.48Z"/><path class="cls-6" d="M906.33,637.43c-3.54,2.48-17.85,14.13,3.88,24.54l26.67-12.71Zm3,28.08c-31.27-14.48-4.24-31.61-4.24-31.61l.71-.53.88.34L942,647.32l3.71,1.59L942,650.67l-31.08,14.84-.71.35Z"/></g><g id="Ball"><path class="cls-7" d="M416.51,224c0,106.3-86.17,192.47-192.47,192.47S31.57,330.25,31.57,224,117.74,31.47,224,31.47,416.51,117.65,416.51,224Z"/><path class="cls-8" d="M366.41,238.09A136.74,136.74,0,1,1,229.67,101.35,136.74,136.74,0,0,1,366.41,238.09Z"/><path class="cls-9" d="M243,374.18a136.74,136.74,0,1,0-45.37-269C246.74,135.14,351.75,222.27,243,374.18Z"/><path class="cls-10" d="M324.51,289.13c-13.48,32.2-26.19,55.84-37.67,73.2a136.77,136.77,0,0,0-34.77-259.15C300.89,143.29,357.47,210.3,324.51,289.13Z"/><polygon class="cls-11" points="153.35 197.85 148.83 154.16 184.41 128.41 224.5 146.34 229.01 190.03 193.44 215.79 153.35 197.85"/><path class="cls-11" d="M328.65,332.43l-2.91-1.29-35.58,25.75.38,3.66A137,137,0,0,0,328.65,332.43Z"/><polygon class="cls-11" points="193.3 352.93 155.73 331.17 155.79 287.74 193.43 266.09 231 287.85 230.94 331.27 193.3 352.93"/><polygon class="cls-11" points="322.53 275.64 282.81 256.98 279.12 213.25 315.14 188.2 354.85 206.86 358.55 250.59 322.53 275.64"/><path class="cls-11" d="M272.82,108.3l.57,6.68,39.71,18.67,2.62-1.83A136.47,136.47,0,0,0,272.82,108.3Z"/><path class="cls-11" d="M97.08,271.63l11.12-7.74-3.69-43.72-9.73-4.57a137.62,137.62,0,0,0,2.3,56Z"/><path class="cls-12" d="M192.51,266.24c-2.11-18.34,0-50.22,0-50.54l2.66.17c0,.32-2.09,32,0,50.06Z"/><path class="cls-12" d="M231.39,289.13l-.77-2.55A149.91,149.91,0,0,0,281.91,256l1.8,2A152.69,152.69,0,0,1,231.39,289.13Z"/><path class="cls-12" d="M278.29,214.3c-.24-.19-24.66-19.31-49.47-23l.39-2.64c25.53,3.75,49.72,22.7,50.74,23.5Z"/><path class="cls-12" d="M314,188.93c.06-.3,6.1-30.79-1.58-55.21l2.48-.73c7.91,25.12,1.92,55.32,1.66,56.6Z"/><path class="cls-12" d="M274.39,115.09c-.34.12-33.91,12.41-50.77,34.18l-2.68-1.93c17.35-22.4,50.62-34.57,52-35.07Z"/><path class="cls-12" d="M107.34,263.88l1.71-2a149.8,149.8,0,0,0,53.63,26.29l-.66,2.58A152.22,152.22,0,0,1,107.34,263.88Z"/><path class="cls-12" d="M155.3,195.31l.6,2.6a149.87,149.87,0,0,0-53.14,27.24l-1.67-2.08A152.55,152.55,0,0,1,155.3,195.31Z"/><path class="cls-12" d="M327.42,333.3l-2.63-.45a150,150,0,0,0-4.43-59.56l2.56-.73A152.77,152.77,0,0,1,327.42,333.3Z"/><path class="cls-12" d="M227.12,331.17l2.89-2.36c.23.2,23.45,19.95,63.21,28.31l-1.66,2.95C251,351.55,227.35,331.37,227.12,331.17Z"/><path class="cls-12" d="M137.67,339.25l2.12,1.88,17.7-9.63-1.27-2.33Z"/><path class="cls-12" d="M341.39,209.25c.55.78,1.1,1.54,1.67,2.29l19.35-5.62-.75-2.56Z"/><path class="cls-12" d="M346.65,242.87c-.09.94-.18,1.88-.25,2.83l19,9.38.43-3.3Z"/><path class="cls-12" d="M128,146.84c0,1,.09,2,.14,3.06l20.9,5.67.86-2.8Z"/><path class="cls-12" d="M188.9,368.65c.85.26,1.72.52,2.58.76l2.39-18-2.64-.35Z"/></g><g id="Whistle"><circle class="cls-13" cx="799.47" cy="223.95" r="162.51" transform="translate(75.81 630.9) rotate(-45)"/><g id="Whistle-2" data-name="Whistle"><path class="cls-14" d="M670.14,304.91l90.71-119.77s26.18-8.38,30.37-30.23,13.34-31.12,34.43-43.7,43.7-16.76,82.32,5.85c0,0,26.43-33.54,44.09-35.18s26.05,8.37,24.39,22.6-18.92,44.58-18.92,44.58S989.92,166.72,990.3,199s-49.93,103-65,105.43-84.87-15.88-113.45,16-37,56.27-37,56.27-82.45-.77-104.69-71.78Z"/><path class="cls-15" d="M729,351.66,685.9,335.15c28.2,36.2,76,40.9,86.77,41.54Z"/><path class="cls-16" d="M670.14,304.91l48.79-64.39,12.2,111.78s-25.29-7.25-45-16.9a93.42,93.42,0,0,1-16-30.49Z"/><path class="cls-17" d="M985.6,178.66h0v.13h0A48.69,48.69,0,0,1,990.3,199a49.35,49.35,0,0,1-.38,6L899.84,303c-27.44-2.53-68-5.08-88,17.41-28.59,31.88-37,56.27-37,56.27h-1.78l-40-22.61s85.89-125.5,92.62-133.88,28.2-41.66,23.88-44.08,43.07-44,81.82-36.71c37.35,6.86,53.23,37.35,54.25,39.25Z"/><path class="cls-18" d="M798.71,147.92l50.82,28.2s7.12,20.58-4.57,32.77-19.31,11.31-19.31,11.31l-25.29-52.08Z"/><path class="cls-19" d="M766.19,187.93s36-16,32.52-40l33.67,63.9s-.89,8.88-6.73,8.38-59.46-32.27-59.46-32.27Z"/><path class="cls-20" d="M915.73,113.63S935,89.24,950.15,87l1.66.26s-12.45,2.67-36.08,26.42Z"/></g></g></g></g></g></g></svg>