<svg xmlns="http://www.w3.org/2000/svg" viewBox="0 0 1083.8 1050.53"><defs><style>.cls-1{fill:#10b346;}.cls-1,.cls-10,.cls-13,.cls-14,.cls-15,.cls-16,.cls-17,.cls-18,.cls-19,.cls-2,.cls-20,.cls-21,.cls-22,.cls-24,.cls-26,.cls-27,.cls-28,.cls-29,.cls-3,.cls-30,.cls-32,.cls-33,.cls-4,.cls-5,.cls-6,.cls-7,.cls-8,.cls-9{fill-rule:evenodd;}.cls-2{fill:#0cf;}.cls-3{fill:#209ebd;}.cls-4{fill:#fc9;}.cls-5{fill:#02802c;}.cls-6{fill:#24a6c7;}.cls-7{fill:#118036;}.cls-8{fill:#0bacd4;}.cls-9{fill:#1a1a1a;}.cls-10{fill:#333;}.cls-11{fill:#b3b3b3;}.cls-12{fill:#ccc;}.cls-13{fill:#c30;}.cls-14{fill:#e6a665;}.cls-15,.cls-23,.cls-29,.cls-33{fill:#f1f2f2;}.cls-15,.cls-23,.cls-25{opacity:0.5;}.cls-16{fill:#369;}.cls-17{fill:#fff;}.cls-18{fill:#396;}.cls-19{fill:#1a4c7d;}.cls-20{fill:#3c6;}.cls-21{fill:#e6e6e6;}.cls-22,.cls-33{opacity:0.1;}.cls-24{fill:#2bb673;}.cls-25,.cls-32{fill:#231f20;}.cls-26{fill:#fbb040;}.cls-27{fill:#f93e4c;}.cls-28{fill:#6d6e71;}.cls-30{fill:#d1d3d4;}.cls-31{opacity:0.3;}</style></defs><title>golf</title><g id="Layer_2" data-name="Layer 2"><g id="Layer_1-2" data-name="Layer 1"><g id="Golf"><g id="Golf-2" data-name="Golf"><g id="Golf_Field" data-name="Golf Field"><polygon class="cls-1" points="489.75 524.04 1072.53 763.76 608.43 973.6 70.48 682.02 489.75 524.04"/><path class="cls-2" d="M795,889.28,608.43,973.6,395.28,858c3.61-16.3,11-29.2,24.9-33.48,48.44-15.29,106,48.43,168.15,51.52,48.45,2.22,156-39.67,206.63,13.21Z"/><path class="cls-3" d="M683.5,939.77,608.43,973.6l-74-40.18c54.45-7.55,121.44-51,149.1,6.35Z"/><path class="cls-4" d="M524.1,538.12l262.45,108C676.62,789.17,623,729.41,617,708.64c-6-21.12,9.11-53.07-33.32-65.09-42.42-12.19-25.77,9.11-86.4-19.74-40.7-19.4-2.57-60.62,26.8-85.69Z"/><polygon class="cls-5" points="70.48 682.02 608.43 973.6 608.43 1050.53 70.48 743.33 70.48 682.02"/><path class="cls-2" d="M395.28,858,608.43,973.6v76.93L396,929.13c-3.09-21.3-5.32-49.11-.68-71.1Z"/><path class="cls-6" d="M534.4,933.42l74,40.18v76.93L504.35,991.12c-2.24-28.68,3.61-54.09,30-57.7Z"/><polygon class="cls-7" points="1072.53 763.76 608.43 973.6 608.43 1050.53 1072.87 820.59 1072.53 763.76"/><path class="cls-2" d="M795,889.28,608.43,973.6v76.93L820,945.78C815.92,920.2,807.16,902,795,889.28Z"/><path class="cls-8" d="M683.5,939.77,608.43,973.6v76.93l87.08-43.1A184.68,184.68,0,0,0,694.32,982c-2.07-18-5.85-31.77-10.82-42.25Z"/><path class="cls-9" d="M338.42,725.3c11.17,0,20.45-3.44,20.45-7.56s-9.28-7.55-20.45-7.55c-11.33,0-20.61,3.43-20.61,7.55s9.28,7.56,20.61,7.56Z"/><polygon class="cls-10" points="403.18 773.21 399.4 778.87 309.91 719.46 313.69 713.79 403.18 773.21"/><rect class="cls-11" x="309.91" y="613.16" width="6.88" height="107.68"/><rect class="cls-12" x="312.66" y="613.16" width="4.12" height="107.68"/><path class="cls-13" d="M309.91,613.16s2.41-3.1,10.31-1c7.73,1.89,9.79,8.07,17.51,8.42a28.8,28.8,0,0,0,13.92-2.75s-4.64,8.07-17.52,9.27a187.73,187.73,0,0,1-21.47,1.2h-2.75Z"/><path class="cls-10" d="M400.26,776.64s-.17,2.92-5.49,5-9.11-.7-13.92,2.23a22.05,22.05,0,0,0-6.87,7.56s-.52-6.7,6.36-12.71a117.29,117.29,0,0,1,12-9.62l1.55-1.2Z"/><path class="cls-14" d="M563.26,555.64l207.49,85.17c-86.92,113-129.34,65.77-134,49.46-4.81-16.83,7.2-41.91-26.28-51.52-33.5-9.45-20.45,7.21-68.37-15.46C510,608,540.07,575.21,563.26,555.64Z"/></g><g id="Ball"><path class="cls-15" d="M1083.8,396.53A168.5,168.5,0,1,1,915.3,228,168.5,168.5,0,0,1,1083.8,396.53Z"/><g id="Golf_Ball" data-name="Golf Ball"><path class="cls-16" d="M892.58,406.33s14.63,14.63,21.6,68.27c7,53.87,8.59,59.21,8.59,59.21s3.71-70.82,13.94-97.76c10.45-26.93,14.4-28.79,14.4-28.79s-30,10-58.53-.93Z"/><path class="cls-17" d="M922.54,411.91c38.32,0,69.44-31.35,69.44-69.66a69.44,69.44,0,0,0-138.88,0c0,38.31,31.12,69.66,69.44,69.66Z"/><path class="cls-18" d="M961.56,545.42l8.82-31.12-19,28.1-3.71-52.71s-4.64,52.95-5.58,52-7-46-7-46l-11.38,40.4-18.81-55.26,5.34,56.19-16-30.88-1.63,26.47s-26.25-52-26.25-51.08S884,541.93,884,541.93L853.56,508.5s25.09,38.31,20.2,35.3c-4.64-3-20.89-20-20.89-20L867,548.66l94.53-.22Z"/><path class="cls-19" d="M892.58,406.33s3.72,3.49,8.12,13.94c10.46,3.71,23.47,5.34,38.1-.71l6.27-2.78c4.18-8.59,6-9.52,6-9.52s-30,10-58.53-.93Z"/><path class="cls-20" d="M882.59,545.42l-8.83-31.12,19,28.1,4-52.71s4.41,52.95,5.34,52c1.16-.93,7-46,7-46l11.38,40.4,18.81-55.26-5.34,56.19,16-30.88,1.62,26.47s26.24-52,26.24-51.08-17.65,60.36-17.65,60.36l30.43-33.43s-25.08,38.31-20.21,35.3,20.9-20,20.9-20l-14.16,24.83-94.53-.22Z"/><path class="cls-21" d="M958.5,290.12s-6-.46-7.2,3.72c-.93,4.41,3.26,6,5.12,6.27,0,0-4.19-2.55-3.49-5.34s2.79-4.18,5.57-4.65Z"/><path class="cls-21" d="M952,298s-6-.46-7.21,4,3,5.8,5.11,6c0,0-4.41-2.32-3.48-5.1A6.42,6.42,0,0,1,952,298Z"/><path class="cls-21" d="M961.05,305.92s-6-.47-7.19,3.94c-1.16,4.18,3,5.8,4.88,6,0,0-4.18-2.33-3.49-5.11a7,7,0,0,1,5.8-4.87Z"/><path class="cls-21" d="M952.93,314.5s-6-.46-7.2,3.95,3.25,6,5.11,6c0,0-4.18-2.32-3.48-5.11a6.43,6.43,0,0,1,5.57-4.88Z"/><path class="cls-21" d="M959.2,325.42s-6-.7-7.19,3.71,3.24,6,5.1,6c0,0-4.18-2.32-3.48-5.11a5.92,5.92,0,0,1,5.57-4.64Z"/><path class="cls-21" d="M953.16,336.33s-6-.7-7.2,3.72,3,6,5.11,6.26c0,0-4.41-2.55-3.48-5.34a5.93,5.93,0,0,1,5.57-4.64Z"/><path class="cls-21" d="M957.11,346.78s-6-.47-7.2,4,3.25,6,5.11,6c0,0-4.18-2.32-3.48-5.1a6.43,6.43,0,0,1,5.57-4.88Z"/><path class="cls-21" d="M954.09,364.65s-6-.46-7.2,4c-1.16,4.18,3.25,5.8,5.12,6,0,0-4.19-2.32-3.49-5.1a6.44,6.44,0,0,1,5.57-4.89Z"/><path class="cls-21" d="M961.76,372.09s-6-.7-7.2,3.72,3.25,6,5.11,6c0,0-4.19-2.32-3.48-5.11a5.92,5.92,0,0,1,5.57-4.64Z"/><path class="cls-21" d="M964.08,357.23s-6-.47-7.2,3.71c-1.16,4.42,3.25,6.05,5.11,6.27,0,0-4.18-2.56-3.49-5.33s2.79-4.18,5.58-4.65Z"/><path class="cls-21" d="M969.58,296.24s-6-.47-7.2,3.71c-.92,4.41,3.26,6,5.12,6.27,0,0-4.18-2.56-3.49-5.34s2.79-4.18,5.57-4.64Z"/><path class="cls-21" d="M973.1,309.65s-6-.46-7.2,4,3,5.81,5.12,6c0,0-4.42-2.33-3.49-5.11a6.44,6.44,0,0,1,5.57-4.88Z"/><path class="cls-21" d="M982.16,317.55s-6-.47-7.2,3.95c-1.16,4.17,3,5.8,4.88,6,0,0-4.18-2.32-3.49-5.11a7,7,0,0,1,5.81-4.87Z"/><path class="cls-21" d="M974,326.14s-6-.47-7.19,3.94,3.24,6.05,5.1,6.05c0,0-4.18-2.33-3.48-5.11a6.43,6.43,0,0,1,5.57-4.88Z"/><path class="cls-21" d="M967.77,337.3s-6-.69-7.2,3.72,3.26,6,5.11,6c0,0-4.18-2.33-3.48-5.11a6,6,0,0,1,5.57-4.65Z"/><path class="cls-21" d="M980.5,337.3s-6-.69-7.21,3.72,3.26,6,5.12,6c0,0-4.19-2.33-3.49-5.11a6,6,0,0,1,5.58-4.65Z"/><path class="cls-21" d="M989.55,337.51s-6-.7-7.2,3.71,3.25,6,5.11,6c0,0-4.18-2.32-3.49-5.11a5.93,5.93,0,0,1,5.58-4.64Z"/><path class="cls-21" d="M974.26,348s-6-.69-7.2,3.72,3,6,5.11,6.27c0,0-4.41-2.55-3.48-5.35a5.94,5.94,0,0,1,5.57-4.64Z"/><path class="cls-21" d="M978.22,358.42s-6.05-.47-7.2,3.94,3.24,6,5.1,6c0,0-4.18-2.33-3.48-5.11a6.42,6.42,0,0,1,5.58-4.87Z"/><path class="cls-21" d="M973.31,372s-6-.46-7.2,3.94c-1.16,4.19,3.25,5.81,5.11,6.05,0,0-4.18-2.33-3.49-5.11a6.44,6.44,0,0,1,5.58-4.88Z"/><path class="cls-21" d="M987.7,353.12s-6.05-.46-7.2,3.72c-1.17,4.41,3.24,6,5.1,6.27,0,0-4.18-2.56-3.48-5.34s2.79-4.18,5.58-4.65Z"/><path class="cls-21" d="M946.45,382.2s-6.05-.46-7.2,3.71c-.94,4.42,3.24,6,5.11,6.27,0,0-4.18-2.55-3.49-5.34s2.79-4.18,5.58-4.64Z"/><path class="cls-21" d="M939.94,390.09s-6-.46-7.2,4,3,5.8,5.11,6c0,0-4.41-2.33-3.49-5.11a6.47,6.47,0,0,1,5.58-4.88Z"/><path class="cls-21" d="M947.34,395.09s-6-.46-7.2,4c-1.16,4.18,3,5.8,4.87,6,0,0-4.18-2.32-3.47-5.1a7,7,0,0,1,5.8-4.88Z"/><path class="cls-21" d="M965.92,385s-6-.47-7.2,3.71c-.93,4.41,3.25,6,5.11,6.27,0,0-4.18-2.55-3.48-5.34s2.78-4.18,5.57-4.64Z"/><path class="cls-21" d="M956.69,389s-6-.47-7.2,3.95,3,5.8,5.11,6c0,0-4.42-2.32-3.49-5.1a6.44,6.44,0,0,1,5.58-4.88Z"/><path class="cls-21" d="M895.13,347.36s-6-.71-7.2,3.71,3,6,4.88,6c0,0-4.18-2.32-3.49-5.11a6.42,6.42,0,0,1,5.81-4.64Z"/><path class="cls-21" d="M865.4,337.6s-6,0-6.73,4.42,3.72,5.8,5.58,5.56c0,0-4.42-1.85-4-4.64.46-3,2.32-4.64,5.1-5.34Z"/><path class="cls-21" d="M863.32,356.18s-5.35,3.25-3.72,7.43,6,3,7.67,1.86c0,0-4.88.69-5.81-2.1a6.6,6.6,0,0,1,1.86-7.19Z"/><path class="cls-21" d="M868.19,368.48s-5.34,3.25-3.71,7.44,6,3,7.66,1.85c0,0-4.87.47-5.81-2.09-1.16-2.78-.23-5.11,1.86-7.2Z"/><path class="cls-21" d="M865.17,322.51s-6,.23-6.73,4.64,3.72,5.58,5.81,5.58c0,0-4.65-2.09-4.18-4.88a6.7,6.7,0,0,1,5.1-5.34Z"/><path class="cls-21" d="M884,303.7s-5.8-1.86-7.89,2.09c-2.33,3.95,1.4,6.5,3.25,7,0,0-3.48-3.25-2.09-5.8s4-3.48,6.73-3.25Z"/><path class="cls-21" d="M885.61,317.86s-5.81-2.09-7.9,2.09c-2.08,4,1.63,6.51,3.49,7,0,0-3.49-3.25-2.08-5.81s3.71-3.48,6.49-3.25Z"/><path class="cls-21" d="M875.86,316.24s-5.81-2.09-7.9,1.86,1.62,6.5,3.25,7.2c0,0-3.48-3.48-1.85-5.81a5.91,5.91,0,0,1,6.5-3.25Z"/><path class="cls-21" d="M874.93,333.42s-5.81-2.09-7.9,1.86c-2.32,4,1.63,6.74,3.26,7.2,0,0-3.49-3.25-2.1-5.81s3.95-3.48,6.74-3.25Z"/><path class="cls-21" d="M884,340.16s-5.8-2.09-7.89,1.86c-2.33,3.94,1.4,6.73,3.25,7.19,0,0-3.48-3.25-2.09-5.81s4-3.48,6.73-3.24Z"/><path class="cls-21" d="M896.52,305.1s-5.8-2.09-8.12,1.85c-2.1,3.95,1.63,6.51,3.48,7.2,0,0-3.48-3.49-2.09-6a6.23,6.23,0,0,1,6.73-3Z"/><path class="cls-21" d="M873.3,353.85s-6,1.16-5.8,5.81c.23,4.42,4.64,4.88,6.5,4.42,0,0-4.64-1.17-4.64-4a6.08,6.08,0,0,1,3.94-6.27Z"/><path class="cls-21" d="M884,356s-6,1.16-5.8,5.57c0,4.64,4.65,4.87,6.5,4.41,0,0-4.88-.93-4.88-3.95a6.19,6.19,0,0,1,4.18-6Z"/><path class="cls-21" d="M874.69,369s-4.87,3.72-2.78,7.66,6.5,2.32,7.89,1.16c0,0-4.64.93-6-1.62a6,6,0,0,1,.93-7.2Z"/><path class="cls-21" d="M894.9,326.92s-5.8-2.09-7.89,1.86,1.62,6.73,3.25,7.2c0,0-3.49-3.25-2.1-5.8s4-3.49,6.74-3.26Z"/><path class="cls-21" d="M894.21,294.65s-5.81-2.09-7.91,2.09c-2.32,3.94,1.4,6.5,3.26,7,0,0-3.48-3.25-2.09-5.8s3.94-3.49,6.74-3.25Z"/><path class="cls-21" d="M882.13,382.18s-4.88,3.72-2.79,7.9c2.09,3.94,6.51,2.09,7.9.93,0,0-4.65,1.16-6-1.39s-.93-5.12.93-7.44Z"/><path class="cls-21" d="M885.61,372s-4.88,3.71-2.78,7.66,6.49,2.32,7.89,1.16c0,0-4.64.93-6-1.62a6,6,0,0,1,.93-7.2Z"/><path class="cls-21" d="M894,383.81s-4.87,3.72-2.78,7.66,6.5,2.33,7.89,1.16c0,0-4.65.93-6-1.62a6,6,0,0,1,.92-7.2Z"/><path class="cls-21" d="M912.55,306.26s-5.57-1.86-7.89,2.09c-2.09,3.94,1.62,6.5,3.48,7.2,0,0-3.48-3.49-2.09-6.05a6.23,6.23,0,0,1,6.5-3.24Z"/><path class="cls-21" d="M914.41,320.42s-5.8-1.86-7.9,2.09c-2.32,3.95,1.63,6.5,3.26,7,0,0-3.49-3.25-2.1-5.8s4-3.48,6.74-3.25Z"/><path class="cls-21" d="M904.66,318.8s-5.81-2.09-7.9,1.85c-2.33,4,1.39,6.5,3.25,7.2,0,0-3.49-3.48-2.09-5.81a6.22,6.22,0,0,1,6.74-3.24Z"/><path class="cls-21" d="M903.72,336s-5.8-2.09-8.12,1.85c-2.1,3.95,1.63,6.74,3.48,7.2,0,0-3.48-3.25-2.09-5.8s3.71-3.48,6.73-3.25Z"/><path class="cls-21" d="M912.55,342.71s-5.57-2.08-7.89,1.86c-2.09,3.95,1.62,6.73,3.48,7.19,0,0-3.48-3.24-2.09-5.8a6.24,6.24,0,0,1,6.5-3.25Z"/><path class="cls-21" d="M925.09,307.65s-5.81-2.09-7.9,1.85,1.63,6.51,3.49,7.21c0,0-3.49-3.49-2.09-5.81a5.92,5.92,0,0,1,6.5-3.25Z"/><path class="cls-21" d="M902.1,356.41s-6,1.16-5.8,5.8c.22,4.42,4.64,4.88,6.5,4.42,0,0-4.65-1.16-4.88-3.95a6.58,6.58,0,0,1,4.18-6.27Z"/><path class="cls-21" d="M912.55,358.5s-6,1.16-5.8,5.58c.23,4.64,4.87,4.87,6.5,4.4,0,0-4.64-.92-4.64-3.94-.24-2.79,1.39-4.88,3.94-6Z"/><path class="cls-21" d="M903.26,371.5s-4.64,3.71-2.56,7.67,6.28,2.32,7.91,1.16c0,0-4.89.93-6.28-1.63a6.83,6.83,0,0,1,.93-7.2Z"/><path class="cls-21" d="M923.7,329.47s-5.81-2.09-7.89,1.86c-2.33,4.18,1.38,6.74,3.25,7.21,0,0-3.49-3.26-2.09-5.81s3.94-3.49,6.73-3.26Z"/><path class="cls-21" d="M922.77,297.2s-5.58-1.86-7.9,2.09c-2.08,3.95,1.63,6.5,3.49,7,0,0-3.49-3.25-2.1-5.81a6.27,6.27,0,0,1,6.51-3.25Z"/><path class="cls-21" d="M910.92,385s-4.87,3.49-2.78,7.66c2.09,3.95,6.27,2.1,7.9.93,0,0-4.88,1.17-6-1.39a6,6,0,0,1,.92-7.2Z"/><path class="cls-21" d="M914.18,374.52s-4.65,3.72-2.56,7.66,6.27,2.32,7.9,1.17c0,0-4.87.92-6.27-1.63a6.75,6.75,0,0,1,.93-7.2Z"/><path class="cls-21" d="M922.77,386.37s-4.88,3.71-2.78,7.65,6.27,2.33,7.89,1.17c0,0-4.87.92-6-1.63a6,6,0,0,1,.93-7.19Z"/><path class="cls-21" d="M911.62,282.81s-5.81-2.09-7.9,1.85c-2.31,3.95,1.63,6.5,3.26,7.2,0,0-3.48-3.48-2.09-5.81a6.22,6.22,0,0,1,6.73-3.24Z"/><path class="cls-21" d="M913.25,297s-5.58-2.09-7.9,1.85c-2.09,3.95,1.63,6.51,3.49,7.2,0,0-3.49-3.48-2.09-5.8a5.9,5.9,0,0,1,6.5-3.25Z"/><path class="cls-21" d="M903.5,295.11s-5.81-1.86-7.9,2.09,1.63,6.5,3.48,7c0,0-3.48-3.25-2.09-5.81s3.71-3.48,6.51-3.25Z"/><path class="cls-21" d="M924.17,284s-5.81-2.08-7.91,1.87c-2.31,4.17,1.4,6.73,3.26,7.19,0,0-3.48-3.25-2.09-5.81s4-3.48,6.74-3.25Z"/><path class="cls-21" d="M921.84,273.75s-5.8-2.09-7.89,1.86,1.62,6.49,3.24,7.2c0,0-3.48-3.49-2.09-5.81a6.24,6.24,0,0,1,6.74-3.25Z"/><path class="cls-21" d="M939,284.43s-6-.47-7.19,3.71c-.93,4.42,3.25,6,5.11,6.27,0,0-4.18-2.55-3.49-5.33s2.79-4.18,5.57-4.65Z"/><path class="cls-21" d="M934.39,277.47s-5.57-2.1-7.91,1.85c-2.09,3.95,1.63,6.51,3.49,7.2,0,0-3.49-3.48-2.09-5.8a5.91,5.91,0,0,1,6.51-3.25Z"/><path class="cls-21" d="M932.53,292.32s-6-.46-7.2,4,3,5.8,5.1,6c0,0-4.41-2.31-3.48-5.1a6.45,6.45,0,0,1,5.58-4.88Z"/><path class="cls-21" d="M941.58,300.22s-6-.46-7.19,3.95c-1.17,4.18,3,5.8,4.87,6,0,0-4.18-2.32-3.48-5.1a7,7,0,0,1,5.8-4.88Z"/><path class="cls-21" d="M933.45,308.81s-6-.46-7.19,3.94,3.25,6.05,5.11,6.05c0,0-4.18-2.33-3.49-5.12a6.43,6.43,0,0,1,5.57-4.87Z"/><path class="cls-21" d="M939.73,319.72s-6-.7-7.2,3.72,3.25,6,5.11,6c0,0-4.19-2.32-3.49-5.1a5.94,5.94,0,0,1,5.58-4.65Z"/><path class="cls-21" d="M933.69,330.64s-6-.7-7.21,3.71,3,6,5.12,6.28c0,0-4.41-2.56-3.49-5.35a5.94,5.94,0,0,1,5.58-4.64Z"/><path class="cls-21" d="M937.64,341.09s-6-.46-7.21,3.94,3.26,6,5.12,6c0,0-4.18-2.32-3.49-5.11a6.43,6.43,0,0,1,5.58-4.87Z"/><path class="cls-21" d="M924.17,347.58s-6-.69-7.2,3.72c-.93,4.42,3.24,6,5.1,6,0,0-4.18-2.33-3.48-5.11a6,6,0,0,1,5.58-4.65Z"/><path class="cls-21" d="M934.62,359s-6-.46-7.2,4c-1.16,4.18,3.24,5.81,5.11,6,0,0-4.18-2.32-3.49-5.11a6.45,6.45,0,0,1,5.58-4.88Z"/><path class="cls-21" d="M926.72,363.14s-6-.69-7.2,3.72,3.25,6,5.11,6c0,0-4.18-2.33-3.48-5.11a5.92,5.92,0,0,1,5.57-4.65Z"/><path class="cls-21" d="M933,375.92s-6.27-.47-7.2,3.71c-1.16,4.41,3,6,4.87,6.27,0,0-4.18-2.55-3.47-5.34.69-2.55,2.78-4.18,5.8-4.64Z"/><path class="cls-21" d="M942.28,366.39s-6-.69-7.2,3.72,3.25,6,5.11,6c0,0-4.19-2.33-3.48-5.11a5.94,5.94,0,0,1,5.57-4.65Z"/><path class="cls-21" d="M944.6,351.53s-6-.46-7.19,3.72c-1.17,4.41,3.24,6,5.1,6.27,0,0-4.18-2.56-3.49-5.34s2.8-4.18,5.58-4.65Z"/><path class="cls-22" d="M922.55,272.82A69.66,69.66,0,0,1,966,337.14c0,38.32-31.12,69.66-69.44,69.66h0a68.69,68.69,0,0,0,26,5.11c38.32,0,69.44-31.35,69.44-69.66A69.62,69.62,0,0,0,922.55,272.82Z"/></g></g><g id="Target"><circle class="cls-23" cx="563.95" cy="165.39" r="165.39" transform="translate(48.23 447.21) rotate(-45)"/><path class="cls-24" d="M729.3,167.9c-43.46-19.62-97.79-31.28-156.75-31.28-66.85,0-127.77,15-173.63,39.58a165.38,165.38,0,0,0,330.38-8.3Z"/><path class="cls-25" d="M622,148.29c0,2-4.85,3.66-10.84,3.66s-10.83-1.64-10.83-3.66,4.85-3.67,10.83-3.67S622,146.26,622,148.29Z"/><path class="cls-26" d="M624,147.43a2,2,0,0,1-2,2h0a2,2,0,0,1-2-2V54.77a2,2,0,0,1,2-2h0a2,2,0,0,1,2,2Z"/><polygon class="cls-27" points="623.65 55.09 623.25 54.43 623.65 91.12 644.65 89.78 623.65 55.09"/></g><g id="Stick"><circle class="cls-23" cx="165.39" cy="414.95" r="165.39"/><path class="cls-28" d="M288.46,304.49,229.6,435.89c-3.83,8.15-4.85,11.36-1.77,12.77,4.9,3.81,8.56,0,12.39-8.11l59.3-122.37A167.46,167.46,0,0,0,288.46,304.49Z"/><path class="cls-29" d="M235.1,453.29c0,19.65-16.19,37.86-42.58,40.8l-79.12,8.83C87,505.86,63.33,487.7,60.51,462.35h0c-2.83-25.35,16.26-48.27,42.65-51.22l82.33,4.61C244.53,421.33,235.1,453.29,235.1,453.29Z"/><path class="cls-30" d="M227.66,456.26c0,18.48-15.23,35.61-40,38.38l-74.43,8.3c-24.81,2.77-47.09-14.31-49.74-38.15h0c-2.66-23.85,15.3-45.42,40.11-48.19L181,420.93C236.52,426.19,227.66,456.26,227.66,456.26Z"/><g class="cls-31"><path class="cls-32" d="M64.54,470.74c.37,1.38.8,2.74,1.29,4.06l135.54-4.06Z"/><path class="cls-32" d="M63.24,462.36c0,.8.11,1.61.2,2.43.06.57.14,1.13.23,1.69l137.7-4.12Z"/><path class="cls-32" d="M63.6,454.2l135-4H64.39C64.06,451.48,63.8,452.83,63.6,454.2Z"/><path class="cls-32" d="M69.38,482.06a41.66,41.66,0,0,0,2.76,4l133.21-4Z"/></g><path class="cls-33" d="M268.11,383c1-13.27,1.54-26.14,1.85-37.2L229.6,435.89c-3.83,8.15-4.85,11.36-1.77,12.77,4.9,3.81,8.56,0,12.39-8.11Z"/></g></g></g></g></g></svg>