<svg xmlns="http://www.w3.org/2000/svg" viewBox="0 0 914.81 849.86"><defs><style>.cls-1{fill:#eabd96;}.cls-2{fill:#5eafe1;}.cls-3{fill:#ffd462;}.cls-4{fill:#f15a29;}.cls-5,.cls-6,.cls-7{fill:#231f20;}.cls-22,.cls-6,.cls-9{opacity:0.1;}.cls-7{opacity:0.2;}.cls-8{fill:#b9d532;}.cls-10,.cls-13,.cls-15,.cls-17,.cls-19,.cls-22{fill:#fff;}.cls-10{opacity:0.8;}.cls-11{fill:#8d6a00;}.cls-12{fill:#fffadf;}.cls-13{opacity:0.6;}.cls-14{fill:#5cdbff;}.cls-15{opacity:0.4;}.cls-16{fill:#ee253d;}.cls-18{fill:#5abde5;}.cls-19{opacity:0.3;}.cls-20{fill:#008091;}.cls-21{fill:#f5c500;}</style></defs><title>jogging</title><g id="Layer_2" data-name="Layer 2"><g id="Layer_1-2" data-name="Layer 1"><g id="Jogging"><g id="Jogging-2" data-name="Jogging"><g id="Man"><path class="cls-1" d="M469.53,606.73s53.08,38.89,88.86,55.47c0,0-2.76,52.06,11.19,78.24s34.32,72.7,34.32,72.7l5.53,12.22L631,814.31S619.46,742,619.46,732.88s-13.52-80.56-16.14-84.64-76.81-87.55-76.81-87.55l-37.79,15.42Z"/><path class="cls-1" d="M427.27,556.12s-26.81,60.1-35.46,98.57c0,0-51.47,8.29-74.1,27.47s-63.82,48.9-63.82,48.9l-10.78,8,15.35,18.71s68.22-26.5,77.18-28.44,75.88-30.23,79.31-33.65,69.35-93.57,69.35-93.57l-23.06-33.67Z"/><path class="cls-2" d="M602.45,821.29s22.47-3.36,27.22-15.06,9.13-2.1,14.07,4.3,27.35,11.64,31.12,14.83,29.67-1.31,31.63,6.33-13.74,16.14-23.78,17.67S628,847,621.2,847.61s-11.34,4.58-15.92.22S594.15,830.52,602.45,821.29Z"/><path class="cls-1" d="M536.35,280.7s2.4,14.83,0,22.25c0,0,5,10.9,5.24,14.83s-6.54,3.71-6.54,3.71-3.93,6.18-3.28,10.32S537,358.49,512,349.76l-.76-.27s-4.36-1-5.23,0-1.86,10.93-1.86,10.93l-1.63,7.74-17.46,4.15s-11-.37-14-2.39c-2.32-1.63-5.67-9.82-5.67-9.82l1.64-9.55,2.51-24.05-.44-24.86,8.07-22.25s12.43-11.12,13.52-11.12,17-3.49,17-3.49l13.3,1.74Z"/><path class="cls-2" d="M254.36,730.81s0,22.73,10.94,29.13.75,9.33-6.3,13.3-15.48,25.35-19.2,28.63-3,29.54-10.85,30.38-14-16-14-26.1,10.32-53.82,10.66-60.6-2.88-11.89,2.09-15.79S246.42,721.27,254.36,730.81Z"/><path class="cls-3" d="M425.62,520s-14.47,68.64,48.76,88.42c0,0,28.89-42.46,53.9-44.21a284.57,284.57,0,0,0-19.19-32.58C496.88,513.59,425.62,520,425.62,520Z"/><path class="cls-4" d="M467.79,349.56s-8.73-.88-16,3.49-83.77,47.4-87,53.8-21.23,16-13.37,32S405.26,520,405.26,520s12.51-6.11,15.12-8.72c0,0-21.66-58.24-33.15-76.53,0,0,44.75-22.94,47.37-28.94L441,460.21S419.51,503.4,425.62,520c0,0,69.8-1.16,83.47,11.63,0,0,12.45-60.08,15.16-71.89.09-.44.18-.8.26-1.1,2-8.44,9.3,23.55,24.42,31.41s23,9.31,38.39-10.47,50.61-69.22,50.61-69.22l-18.33-15.7s-52.34,60.78-54.67,60.48-30.54-43.91-30.54-50.31,0-22.68-5.82-27.92-24.39-16.47-24.39-16.47-2.29,10.15-14.51,9.71-22-4.36-23.12-11.56S467.79,349.56,467.79,349.56Z"/><path class="cls-1" d="M420.43,510.48s10.38,8.16,19,13.56,9.86,5.67,8.41,7.86-12.42-4.28-12.42-4.28,12.93,25.62,14.37,26.42-3.37,2.82-13.79,3.34-19.2-5.86-23.63-14.91-9-24.05-9-24.05Z"/><path class="cls-5" d="M536.58,282.23s-24.22-12.87-31.2-5.9-11.21,32.2-25,34.53c-5.4.91-10.73,15.64-10.73,15.64S458.18,316,454.26,301.84s-5.16-23.32,2-35.54,14.61-27,42.1-26.83,32.11,13.71,34.93,22.22S536.58,282.23,536.58,282.23Z"/><path class="cls-1" d="M620.46,395.36s3.36-13.67,4.81-24.43,1.17-12.07,3.93-11.63,1.31,13.95,1.31,13.95,19.2-23.84,19.34-25.59,4.22,2,9.31,11.93,2.76,21.23-4.07,29.52-19.43,19.29-19.43,19.29Z"/><path class="cls-6" d="M265.3,759.94a13.27,13.27,0,0,1-2.66-2.08c-.75,2.72-2.57,6.49-6.87,10.79C247,777.38,229,797.73,229,803.25c0,4.8,1.75,23.07,2.21,27.86,5.47-5.17,5.28-26.32,8.58-29.24,3.72-3.28,12.15-24.68,19.2-28.63S276.18,766.35,265.3,759.94Z"/><path class="cls-7" d="M706.38,831.39c-2.56-7.21-27.79-2.87-31.52-6s-26.18-8.43-31.12-14.83-9.31-16-14.07-4.3a12.61,12.61,0,0,1-.87,1.72,62.53,62.53,0,0,0,33.41,18.94C679.89,830.61,697.56,832.34,706.38,831.39Z"/></g><g id="Green_Apple" data-name="Green Apple"><path class="cls-8" d="M805.14,42.27c-23.13-29.57-74.55-11-92.79-3.05-18.24-7.9-69.65-26.52-92.79,3.05-28.39,36.27-4.74,138.8,41,157.73s41,.79,51.27-7.1a3.25,3.25,0,0,0,.51-.53,2.88,2.88,0,0,0,.51.53c10.26,7.89,5.53,26,51.27,7.1S833.54,78.54,805.14,42.27Z"/><path class="cls-9" d="M750.36,27.6c15.73,4.34,53.55,20.35,46,72.81-8.88,61.47-41,96.15-71.05,106.14,5.83,3.1,16.09,2.86,38.85-6.55,45.74-18.93,69.41-121.46,41-157.73C792.16,25.68,770.29,24.26,750.36,27.6Z"/><path class="cls-10" d="M656.53,30.35s-26.06,2-33.53,19.49-5.9,30.81-5.9,30.81S618.92,46.67,656.53,30.35Z"/><path class="cls-11" d="M708.85,39.42s1.59-30.2,0-39.42h7s-6.68,29.88,0,41Z"/><polygon class="cls-9" points="792.19 144.66 648.24 144.66 646.65 140.13 792.19 140.13 792.19 144.66"/><path class="cls-9" d="M646.69,140.25s-3.24,40.32,39.87,66.68l11.37-8.34L656,148.06l-7-5.66Z"/><path class="cls-8" d="M647.21,142c7,47.72,49.25,84.43,100.38,84.43S841,189.69,848,142Z"/><path class="cls-12" d="M660.43,142c6.05,41.43,42.77,73.3,87.16,73.3s81.09-31.87,87.15-73.3Z"/></g><g id="Water"><path class="cls-13" d="M787.47,349.47,741.69,557.05a10.13,10.13,0,0,0,7.19,12.39l91.21,24.21a10.12,10.12,0,0,0,12.38-7.19L914.81,384Z"/><polygon class="cls-14" points="842.95 584.34 749.71 559.59 794.79 352.1 905.74 381.55 842.95 584.34"/><path class="cls-15" d="M818.88,394.57a8,8,0,1,1-5.69-9.8A8,8,0,0,1,818.88,394.57Z"/><path class="cls-15" d="M835.76,435.94a5.28,5.28,0,1,1-3.75-6.45A5.28,5.28,0,0,1,835.76,435.94Z"/><path class="cls-15" d="M849.07,466.69a5.74,5.74,0,1,1-4.08-7A5.74,5.74,0,0,1,849.07,466.69Z"/><path class="cls-15" d="M873.48,392.47a8,8,0,1,1-5.69-9.8A8,8,0,0,1,873.48,392.47Z"/><path class="cls-15" d="M798.26,469.11a6.39,6.39,0,1,1-4.54-7.82A6.4,6.4,0,0,1,798.26,469.11Z"/><path class="cls-15" d="M829.05,497.36a8,8,0,1,1-5.7-9.8A8,8,0,0,1,829.05,497.36Z"/><path class="cls-15" d="M805.68,527.84A8,8,0,1,1,800,518,8,8,0,0,1,805.68,527.84Z"/></g><g id="Heart"><path class="cls-16" d="M358.66,33.65c-32.16-31.45-80.39,8.19-80.39,8.19h0S230,2.2,197.88,33.65s-18.39,66.24,17.49,100.16,62.9,59.8,62.9,59.8,27-25.88,62.9-59.8S390.81,65.1,358.66,33.65Z"/><polygon class="cls-17" points="290.9 186.76 275.33 89.82 267.21 162.66 253.41 110.34 240.53 160.32 229.5 110.28 220.96 129.53 163.43 129.53 163.43 125.43 218.29 125.43 230.81 97.19 240.84 142.67 253.37 94.08 265.57 140.34 274.6 59.35 291.8 166.51 302.71 123.56 360.46 123.56 360.46 127.66 305.9 127.66 290.9 186.76"/></g><g id="Water-2" data-name="Water"><path class="cls-10" d="M228.65,583.43a10.3,10.3,0,0,1-5.86,13.29L107.45,641.46a10.16,10.16,0,0,1-13.18-5.9L.68,390a10.32,10.32,0,0,1,5.86-13.3L121.89,332a10.16,10.16,0,0,1,13.18,5.91Z"/><path class="cls-18" d="M215.47,577.21c1.94,5.1-.15,10.65-4.67,12.41l-99.17,38.47c-4.52,1.75-9.75-1-11.7-6.06L10,386c-1.94-5.1.15-10.66,4.67-12.41l99.17-38.47c4.52-1.75,9.76.95,11.7,6.06Z"/><path class="cls-19" d="M86.07,435.07a8.67,8.67,0,0,1-4.91,11.17,8.53,8.53,0,0,1-11.07-5A8.66,8.66,0,0,1,75,430.11,8.54,8.54,0,0,1,86.07,435.07Z"/><path class="cls-19" d="M93.26,394.61a13.61,13.61,0,0,1-7.73,17.53,13.42,13.42,0,0,1-17.37-7.8,13.59,13.59,0,0,1,7.73-17.52A13.41,13.41,0,0,1,93.26,394.61Z"/><path class="cls-19" d="M118.39,449a5.57,5.57,0,0,1-3.17,7.18,5.49,5.49,0,0,1-7.11-3.19,5.57,5.57,0,0,1,3.16-7.18A5.5,5.5,0,0,1,118.39,449Z"/><path class="cls-19" d="M112.48,563.84A8.68,8.68,0,0,1,107.56,575a8.56,8.56,0,0,1-11.08-5,8.67,8.67,0,0,1,4.93-11.17A8.54,8.54,0,0,1,112.48,563.84Z"/><path class="cls-19" d="M119.66,523.38a13.59,13.59,0,0,1-7.73,17.52,13.41,13.41,0,0,1-17.37-7.79,13.6,13.6,0,0,1,7.73-17.52A13.41,13.41,0,0,1,119.66,523.38Z"/><path class="cls-19" d="M144.79,577.76a5.56,5.56,0,0,1-3.16,7.18,5.49,5.49,0,0,1-7.12-3.19,5.58,5.58,0,0,1,3.16-7.18A5.5,5.5,0,0,1,144.79,577.76Z"/><path class="cls-19" d="M148.16,507.69a8.66,8.66,0,0,1-4.92,11.17,8.55,8.55,0,0,1-11.07-5,8.67,8.67,0,0,1,4.93-11.17A8.54,8.54,0,0,1,148.16,507.69Z"/><path class="cls-19" d="M155.34,467.23a13.6,13.6,0,0,1-7.72,17.53A13.41,13.41,0,0,1,130.25,477,13.6,13.6,0,0,1,138,459.44,13.4,13.4,0,0,1,155.34,467.23Z"/><path class="cls-19" d="M180.48,521.61a5.57,5.57,0,0,1-3.17,7.18,5.49,5.49,0,0,1-7.11-3.19,5.56,5.56,0,0,1,3.16-7.18A5.5,5.5,0,0,1,180.48,521.61Z"/><path class="cls-20" d="M122.85,331.63,118.4,320a10.83,10.83,0,0,0-14-6.3l-97,37.62a11,11,0,0,0-6.25,14.17l4.45,11.67Z"/><path class="cls-21" d="M97.32,316.37l-3.14-8.24a7.67,7.67,0,0,0-9.93-4.46l-68.58,26.6a7.77,7.77,0,0,0-4.41,10l3.14,8.25Z"/><path class="cls-22" d="M33.1,325.78l-.75-2-16.68,6.47a7.77,7.77,0,0,0-4.41,10l3.14,8.25,17.72-6.87A71.52,71.52,0,0,0,33.1,325.78Z"/><path class="cls-22" d="M32.12,341.68l-24.74,9.6a11,11,0,0,0-6.25,14.17l4.45,11.67,15.13-5.88A74.38,74.38,0,0,0,32.12,341.68Z"/><path class="cls-9" d="M113.8,335.14,64.22,354.38l97,254.47,49.58-19.23c4.52-1.76,6.61-7.31,4.67-12.41l-90-236C123.56,336.09,118.32,333.39,113.8,335.14Z"/></g></g></g></g></g></svg>