<svg xmlns="http://www.w3.org/2000/svg" viewBox="0 0 1221.11 816.65"><defs><style>.cls-1{fill:#d1d3d4;}.cls-2{fill:#00a14b;}.cls-3{fill:#e6e7e8;}.cls-13,.cls-4{fill:#231f20;}.cls-5{fill:#f1f2f2;opacity:0.7;}.cls-6{fill:#bcbec0;}.cls-7{fill:#ebae70;}.cls-10,.cls-11,.cls-12,.cls-13,.cls-7,.cls-8,.cls-9{fill-rule:evenodd;}.cls-8{fill:#db9855;}.cls-9{fill:#fc9;}.cls-10{fill:#f7be86;}.cls-11{fill:#fadcbe;}.cls-12{fill:#f94212;}.cls-14{fill:#fbb040;}.cls-15{fill:#fff;opacity:0.3;}</style></defs><title>tableTenis</title><g id="Layer_2" data-name="Layer 2"><g id="Layer_1-2" data-name="Layer 1"><g id="Table_Tennis" data-name="Table Tennis"><g id="Table_Tennis-2" data-name="Table Tennis"><polygon class="cls-1" points="0.47 556.95 10.98 564 806.15 377.08 806.15 373.45 0.47 556.95"/><polygon class="cls-2" points="321.56 787.08 1204 471.72 806.15 377.08 19.12 562.08 321.56 787.08"/><polygon class="cls-3" points="166.41 672.9 165.44 669.69 999.05 421.47 1000.01 424.69 166.41 672.9"/><polygon class="cls-4" points="321.56 796.52 321.56 816.65 862.21 612.38 1221.11 483.9 1221.11 472.71 321.56 796.52"/><polygon class="cls-4" points="0 555.76 0 573.1 321.56 816.65 321.56 796.93 0 555.76"/><polygon class="cls-1" points="321.56 796.93 321.56 787.08 1208.25 470.2 1221.11 472.71 321.56 796.93"/><polygon class="cls-1" points="321.56 787.08 10.63 555.76 0 555.76 321.56 796.93 321.56 787.08"/><polygon class="cls-1" points="1221.11 472.71 806.15 373.45 806.15 377.08 1204 471.72 1221.11 472.71"/><polygon class="cls-4" points="486.75 452.16 477.17 452.16 445.51 438.11 455.57 447.76 447.19 447.76 435.02 434.75 436.7 432.87 443.62 432.87 486.75 452.16"/><path class="cls-4" d="M445,432.8a3.28,3.28,0,0,1-3.29,3.28h0a3.28,3.28,0,0,1-3.28-3.28V387.64a3.28,3.28,0,0,1,3.28-3.28h0a3.28,3.28,0,0,1,3.29,3.28Z"/><path class="cls-4" d="M931.43,608.61a5.6,5.6,0,0,1-5.6,5.6h0a5.6,5.6,0,0,1-5.6-5.6V537a5.6,5.6,0,0,1,5.6-5.6h0a5.6,5.6,0,0,1,5.6,5.6Z"/><polygon class="cls-4" points="851.17 584.84 858.16 582.08 925.83 609.73 925.83 617.28 910.45 617.28 920.23 622.03 914.93 625.95 869.04 609.94 876.61 607.49 895.35 614.21 900.66 612.53 851.17 584.84"/><polygon class="cls-5" points="445.02 391.07 445.02 432.8 920.23 604.01 920.23 546.54 446 391.07 445.02 391.07"/><polygon class="cls-6" points="445.02 391.07 445.02 387.1 920.23 537.73 920.23 547.37 445.02 391.07"/></g><g id="Racket_2" data-name="Racket 2"><path class="cls-7" d="M510.34,271.57C466.17,319.64,387.66,319.38,335,271c-43.7-40.14-55.9-100.82-33.58-147.77C298.28,111,291.28,98,277.17,86.32c-42.35-35-59.62-32.19-59.62-32.19C201.6,51,259-15.29,264.24,3.27c0,0-1.36,17.47,37.14,56.66,12,12.18,24.6,18.13,36.37,20.53C383.09,49.1,448.83,54.64,494.9,96.93c52.68,48.39,59.6,126.58,15.44,174.64Z"/><path class="cls-8" d="M506.67,272.36c-44.16,48.08-122.68,47.82-175.38-.57C287.58,231.65,275.38,171,297.71,124c-3.09-12.21-10.1-25.25-24.21-36.91-42.35-35-59.61-32.19-59.61-32.19-16-3.11,41.42-69.42,46.68-50.84,0,0-1.35,17.46,37.15,56.64,12,12.18,24.6,18.13,36.37,20.54C379.41,49.9,445.17,55.44,491.22,97.72c52.69,48.39,59.62,126.59,15.45,174.64Z"/><path class="cls-9" d="M500.9,273.61c-44.16,48.08-122.67,47.82-175.38-.56-43.7-40.15-55.9-100.82-33.57-147.77-3.1-12.22-10.1-25.25-24.22-36.92-42.34-35-59.6-32.18-59.6-32.18-16-3.11,41.41-69.42,46.68-50.85,0,0-1.36,17.46,37.14,56.65,12,12.17,24.6,18.12,36.37,20.53C373.65,51.16,439.4,56.69,485.46,99c52.68,48.39,59.62,126.58,15.44,174.63Z"/><path class="cls-7" d="M229.06,16.71c2.2-2.23,4.44-4.31,6.62-6.15l118.84,115L234.12,24.58Z"/><path class="cls-7" d="M217.65,30.33c-2,2.39-3.93,4.77-5.59,7.1L336.71,146.07,225.92,34.7Z"/><path class="cls-10" d="M213.81,34.78a146.08,146.08,0,0,1,18.62-21.35l122.09,112.1-19.18,20.84Z"/><polygon class="cls-11" points="330.83 103.77 354.52 125.53 335.35 146.37 311.69 124.64 330.83 103.77"/><path class="cls-12" d="M500.9,273.61c-44.16,48.08-122.67,47.82-175.38-.56a137.09,137.09,0,0,1-41.43-70.86L411.29,63.68A137.12,137.12,0,0,1,485.46,99c52.68,48.39,59.62,126.58,15.44,174.63Z"/><path class="cls-7" d="M116.58,445.53c-61.42-22.16-91.5-94.66-67.23-161.95C69.5,227.75,120.77,193,172.71,195.52c10.1-7.6,19.42-19.11,24.72-36.61,16-52.57,6.66-67.41,6.66-67.41-3.3-15.93,80,11.39,65,23.43,0,0-16.64,5.48-38,56.13-6.61,15.73-7.2,29.71-4.89,41.47C272.65,242.19,293,305,271.73,363.78c-24.3,67.29-93.76,103.9-155.15,81.75Z"/><path class="cls-8" d="M114.43,442.46C53,420.3,22.93,347.79,47.2,280.51c20.16-55.83,71.42-90.54,123.36-88.09,10.1-7.57,19.41-19.09,24.72-36.59,16-52.59,6.66-67.4,6.66-67.4-3.3-15.93,80.05,11.37,64.95,23.4,0,0-16.64,5.51-37.94,56.17-6.63,15.72-7.21,29.67-4.89,41.45,46.44,29.67,66.75,92.45,45.52,151.26C245.29,428,175.83,464.6,114.43,442.46Z"/><path class="cls-9" d="M111,437.63C49.63,415.46,19.55,343,43.82,275.68c20.15-55.84,71.42-90.54,123.37-88.06,10.09-7.6,19.4-19.12,24.71-36.62,16-52.56,6.66-67.4,6.66-67.4C195.26,67.67,278.61,95,263.51,107c0,0-16.64,5.49-37.94,56.14-6.62,15.73-7.21,29.7-4.9,41.46,46.45,29.67,66.76,92.45,45.53,151.26C241.9,423.17,172.45,459.77,111,437.63Z"/><path class="cls-7" d="M243.06,87.67c2.89,1.18,5.68,2.41,8.23,3.69l-60.16,154,46.61-150Z"/><path class="cls-7" d="M226.08,82.38c-3-.93-5.92-1.75-8.72-2.41l-52.07,157L225.23,91.71Z"/><path class="cls-10" d="M220.51,80.59a144.55,144.55,0,0,1,26.87,8.93L191.13,245.38l-26.64-9.59Z"/><polygon class="cls-11" points="202.03 215.17 191.13 245.38 164.49 235.79 175.39 205.55 202.03 215.17"/><path class="cls-13" d="M111,437.63C49.63,415.46,19.55,343,43.82,275.68A137.25,137.25,0,0,1,93.2,210.07l176.92,63.8a137,137,0,0,1-3.92,82C241.9,423.17,172.45,459.77,111,437.63Z"/></g><g id="Ball"><circle class="cls-14" cx="849.29" cy="184.2" r="72.04"/><path class="cls-15" d="M845.86,119s31.07.61,44.39,18.77,2.43,34.1-13.72,17.15-25.83-29.26-33.09-30.07S839.19,118.41,845.86,119Z"/><path class="cls-15" d="M912.87,181.58a8.33,8.33,0,1,1-8.33-8.32A8.33,8.33,0,0,1,912.87,181.58Z"/><path class="cls-14" d="M1009.15,70.31a56.47,56.47,0,1,1-56.47-56.46A56.47,56.47,0,0,1,1009.15,70.31Z"/><path class="cls-15" d="M950,19.19s24.36.47,34.79,14.7,1.9,26.74-10.75,13.45S953.79,24.41,948.1,23.78,944.77,18.74,950,19.19Z"/><path class="cls-15" d="M1002.52,68.26A6.53,6.53,0,1,1,996,61.73,6.52,6.52,0,0,1,1002.52,68.26Z"/><circle class="cls-14" cx="726.82" cy="103.38" r="56.46" transform="translate(139.78 544.22) rotate(-45)"/><path class="cls-15" d="M724.13,52.25s24.35.48,34.8,14.72,1.89,26.72-10.76,13.43-20.25-22.93-25.94-23.56S718.91,51.81,724.13,52.25Z"/><path class="cls-15" d="M776.65,101.33a6.52,6.52,0,1,1-6.52-6.53A6.52,6.52,0,0,1,776.65,101.33Z"/></g></g></g></g></svg>