<svg xmlns="http://www.w3.org/2000/svg" viewBox="0 0 1029.07 941.81"><defs><style>.cls-1{fill:#10b346;}.cls-1,.cls-11,.cls-14,.cls-15,.cls-18,.cls-2,.cls-3,.cls-5,.cls-7{fill-rule:evenodd;}.cls-2{fill:#02802c;}.cls-3{fill:#118036;}.cls-15,.cls-4{fill:#fff;}.cls-12,.cls-5{fill:#c30;}.cls-6{fill:#ccc;}.cls-7{fill:#f7ffd3;opacity:0.6;}.cls-8{fill:#00aeef;}.cls-9{fill:#265380;}.cls-21,.cls-9{opacity:0.1;}.cls-10{fill:#f26522;}.cls-11{fill:#414042;}.cls-13,.cls-17,.cls-21{fill:#231f20;}.cls-14{fill:#666;}.cls-16{fill:#e6e7e8;}.cls-17{opacity:0.2;}.cls-18{fill:#fbb040;}.cls-19{fill:#1a1a1a;}.cls-20{fill:#dcf128;}</style></defs><title>tennis</title><g id="Layer_2" data-name="Layer 2"><g id="Layer_1-2" data-name="Layer 1"><g id="Tennis"><g id="Tennis-2" data-name="Tennis"><g id="Tennis_Court" data-name="Tennis Court"><polygon class="cls-1" points="430.42 401.3 1028.71 647.41 552.27 862.83 0 563.49 430.42 401.3"/><polygon class="cls-2" points="0 563.49 552.27 862.83 552.27 941.81 0 626.43 0 563.49"/><polygon class="cls-3" points="1028.71 647.41 552.27 862.83 552.27 941.81 1029.07 705.75 1028.71 647.41"/><path class="cls-4" d="M446.65,436.73,942,640.35l9.87,4.23L942,649,547.69,827.4l-2.12.87-1.94-1L86.4,579.36l-9-5,9.52-3.52L443.29,436.73l1.59-.7Zm481.73,208.2L444.88,446.07,99.8,576,545.92,817.88Z"/><polygon class="cls-5" points="928.38 644.93 444.88 446.07 99.81 576 545.92 817.88 928.38 644.93"/><polygon class="cls-4" points="154.99 543.03 621.21 791.97 618.22 797.43 152 548.5 154.99 543.03"/><polygon class="cls-4" points="379.29 468.29 867.19 676.84 864.73 682.49 373.29 471.64 379.29 468.29"/><polygon class="cls-4" points="465.16 508.13 253.38 598.75 254.45 601.22 467.8 509.71 465.16 508.13"/><polygon class="cls-4" points="745.35 628.01 504.3 731.15 505.54 733.96 748.35 629.78 745.35 628.01"/><polygon class="cls-4" points="363.24 552.91 643.08 672.43 641.67 675.79 359.72 554.85 363.24 552.91"/><rect class="cls-6" x="305.58" y="666.97" width="9.34" height="36.32"/><rect class="cls-6" x="678.35" y="503.37" width="9.52" height="27.15"/><polygon class="cls-7" points="678.35 503.37 314.92 666.97 314.92 692.71 678.35 526.29 678.35 503.37"/></g><g id="Racket_1" data-name="Racket 1"><path class="cls-8" d="M709.75,72.93c20.8,0,39.4,10,52.85,26.11C775.9,114.83,784,136.72,784,160.63A108.1,108.1,0,0,1,782.15,181l.78-1.57-1.09,3a94.11,94.11,0,0,1-11,28.15L722.26,337H703.65L649.7,212.23a96.88,96.88,0,0,1-10.63-24.55l-1.56-3.75.93,1.56a108.52,108.52,0,0,1-3-24.86c0-23.91,8.29-45.8,21.43-61.59,13.44-16.1,32.21-26.11,52.85-26.11Zm26.58,169.78c-12,10.63-39.72,9.86-52.53.47l28,78.32Zm17.83-136.64c-11.42-13.6-27-22-44.41-22-17.2,0-33,8.45-44.41,22-11.57,13.92-18.76,33.3-18.76,54.56,0,21.42,7.19,40.65,18.76,54.57,11.41,13.76,27.21,22.2,44.41,22.2,17.36,0,33-8.44,44.41-22.2,11.73-13.92,18.92-33.15,18.92-54.57,0-21.26-7.19-40.64-18.92-54.56Z"/><path class="cls-9" d="M713.5,73.09c19.23,1.09,36.44,10.78,49.1,26C775.9,114.83,784,136.72,784,160.63A108.1,108.1,0,0,1,782.15,181l.78-1.57-1.09,3a94.11,94.11,0,0,1-11,28.15L724,332.29,713.5,337V316l22.83-73.33c-5.31,4.69-13.91,7.19-22.83,7.66V237.24c15.8-1.09,30.18-9.38,40.66-22,11.73-13.92,18.92-33.15,18.92-54.57,0-21.26-7.19-40.64-18.92-54.56C743.68,93.41,729.3,85.28,713.5,84.18Z"/><rect class="cls-10" x="703.65" y="336.98" width="19.08" height="124.92"/><path class="cls-11" d="M702.87,461.9h20.64a4.87,4.87,0,0,1,4.85,4.85h0a4.91,4.91,0,0,1-4.85,5H702.87a5,5,0,0,1-5-5h0a4.92,4.92,0,0,1,5-4.85Z"/><path class="cls-6" d="M668.16,218.32h84c-1.41,1.41-2.81,2.81-4.23,4.07H672.38c-1.41-1.26-2.82-2.66-4.22-4.07Z"/><path class="cls-6" d="M661.74,210.51h96.8a41.68,41.68,0,0,1-3.13,4.06H664.87c-1.09-1.25-2-2.66-3.13-4.06Z"/><path class="cls-6" d="M656.9,202.69H763.39c-.79,1.4-1.57,2.81-2.35,4.06H659.4a35.3,35.3,0,0,1-2.5-4.06Z"/><path class="cls-6" d="M653.14,194.87h114a33,33,0,0,1-1.88,4.07H655c-.63-1.25-1.25-2.66-1.88-4.07Z"/><path class="cls-6" d="M650.33,187.06H770c-.47,1.4-.93,2.81-1.41,4.06H651.74c-.48-1.25-1-2.66-1.41-4.06Z"/><path class="cls-6" d="M648.45,179.24H772c-.32,1.4-.63,2.81-.94,4.07H649.39c-.31-1.26-.63-2.67-.94-4.07Z"/><path class="cls-6" d="M647.2,171.42h126a32.58,32.58,0,0,1-.63,4.06H647.68c-.17-1.25-.32-2.65-.48-4.06Z"/><path class="cls-6" d="M646.58,163.61H773.71a33.2,33.2,0,0,1-.16,4.06H646.73c0-1.25-.15-2.66-.15-4.06Z"/><path class="cls-6" d="M646.73,155.79h127c0,1.4.15,2.66.15,4.06H646.58a36.73,36.73,0,0,1,.15-4.06Z"/><path class="cls-6" d="M647.36,148H772.92c.16,1.41.32,2.66.48,4.07H646.89c.15-1.41.31-2.66.47-4.07Z"/><path class="cls-6" d="M648.76,140.16H771.52a35.86,35.86,0,0,1,.78,4.06H648c.31-1.41.47-2.66.78-4.06Z"/><path class="cls-6" d="M651,132.34H769.33a41.14,41.14,0,0,1,1.25,4.06H649.7a37.73,37.73,0,0,0,1.25-4.06Z"/><path class="cls-6" d="M654.08,124.52H766.36c.63,1.4,1.09,2.65,1.72,4.06H652.36c.47-1.41,1.1-2.66,1.72-4.06Z"/><path class="cls-6" d="M658,116.71h104.3c.78,1.4,1.56,2.65,2.35,4.06H655.8c.63-1.41,1.41-2.66,2.19-4.06Z"/><path class="cls-6" d="M663.31,108.88h93.82c.94,1.26,2,2.66,3,4.07H660.34a38.92,38.92,0,0,1,3-4.07Z"/><path class="cls-6" d="M670.19,101.07h80.06c1.25,1.25,2.66,2.65,3.91,4.06H666.28a46.85,46.85,0,0,1,3.91-4.06Z"/><path class="cls-6" d="M656.58,119.36v82.7a83.48,83.48,0,0,1-4.22-9.22V128.42a80.9,80.9,0,0,1,4.22-9.06Z"/><path class="cls-6" d="M664.4,107.48V214c-1.56-1.88-2.81-3.75-4.22-5.79v-95a51.94,51.94,0,0,1,4.22-5.63Z"/><path class="cls-6" d="M672.22,99.19v123c-1.41-1.25-2.81-2.66-4.22-4.07V103.25a51.17,51.17,0,0,1,4.22-4.06Z"/><path class="cls-6" d="M680,93.1V228.17l-4.22-2.81V96.07c1.41-1.1,2.81-2,4.22-3Z"/><path class="cls-6" d="M687.86,88.87V232.55c-1.41-.62-2.82-1.41-4.22-2.19V90.91c1.4-.79,2.81-1.41,4.22-2Z"/><path class="cls-6" d="M695.68,86.06v149.3a42.54,42.54,0,0,1-4.22-1.4V87.31a41.35,41.35,0,0,1,4.22-1.25Z"/><path class="cls-6" d="M703.5,84.34V236.93a41.12,41.12,0,0,1-4.23-.63V85.12c1.41-.32,2.82-.47,4.23-.78Z"/><path class="cls-6" d="M711.31,84V237.4h-1.09a20.46,20.46,0,0,1-3.13-.16V84h4.22Z"/><path class="cls-6" d="M719.13,84.65v152a38.09,38.09,0,0,1-4.22.47V84.18l4.22.47Z"/><path class="cls-6" d="M727,86.69v148c-1.41.32-2.82.79-4.22,1.1V85.44A42.91,42.91,0,0,1,727,86.69Z"/><path class="cls-6" d="M734.77,90V231.46l-4.22,1.87V87.94c1.4.62,2.81,1.25,4.22,2Z"/><path class="cls-6" d="M742.59,94.66v132.1c-1.41,1-2.81,1.88-4.22,2.67V92c1.41.79,2.81,1.72,4.22,2.66Z"/><path class="cls-6" d="M750.41,101.22v119L746.18,224V97.47a47.46,47.46,0,0,1,4.23,3.75Z"/><path class="cls-6" d="M758.22,110.29V211a67.77,67.77,0,0,1-4.22,5.31V105.13a63.64,63.64,0,0,1,4.22,5.16Z"/><path class="cls-6" d="M766,123.89v73.64a73.53,73.53,0,0,1-4.22,7.81V115.92a63.43,63.43,0,0,1,4.22,8Z"/><path class="cls-6" d="M769.64,188V133.43a90.83,90.83,0,0,1,4.22,27.2A91.84,91.84,0,0,1,769.64,188Z"/><path class="cls-12" d="M710.22,83.4c17.67,0,33.77,8.6,45.35,22.67s18.92,33.3,18.92,54.56c0,21.42-7.2,40.65-18.92,54.72C744,229.26,727.89,238,710.22,238c-17.83,0-33.93-8.76-45.5-22.67C653.14,201.28,646,182.05,646,160.63c0-21.26,7.19-40.64,18.77-54.56s27.67-22.67,45.5-22.67Zm44.57,23.45c-11.42-13.75-27.22-22.36-44.57-22.36s-33.15,8.61-44.57,22.36-18.45,32.84-18.45,53.78c0,21.11,7,40.18,18.45,53.94s27.21,22.2,44.57,22.2,33.15-8.44,44.57-22.2,18.45-32.83,18.45-53.94c0-20.94-7-40-18.45-53.78Z"/><rect class="cls-13" x="703.65" y="336.98" width="19.08" height="26.43"/><path class="cls-14" d="M711.94,337h3.28a3,3,0,0,1,3,3v20.48a2.88,2.88,0,0,1-3,3h-3.28a2.88,2.88,0,0,1-3-3V340a3,3,0,0,1,3-3Z"/><path class="cls-15" d="M707.72,365.9h0a1.57,1.57,0,0,1,1.56,1.57v39.08a1.57,1.57,0,0,1-1.56,1.57h0a1.49,1.49,0,0,1-1.57-1.57V367.47a1.49,1.49,0,0,1,1.57-1.57Z"/><path class="cls-15" d="M707.72,417.81h0a1.68,1.68,0,0,1,1.56,1.57v13.75a1.57,1.57,0,0,1-1.56,1.57h0a1.49,1.49,0,0,1-1.57-1.57V419.38a1.57,1.57,0,0,1,1.57-1.57Z"/><path class="cls-16" d="M925.07,154.06c15.17,14.23,21.9,34.25,20.65,55.19-1.25,20.64-10.32,42.22-26.91,59.57a96,96,0,0,1-15.31,13.45l1.56-.63-2.66,1.41A95,95,0,0,1,875,296L752.75,354.49l-13.6-12.82,46.6-127.57A90.55,90.55,0,0,1,795,188.93l1.41-3.91-.31,1.88a99.42,99.42,0,0,1,14.85-20.17c16.42-17.35,37.37-27.67,57.86-30,21-2.51,41.28,3.12,56.29,17.34ZM827.81,295.55c-16.1-.46-35.65-20-38.47-35.64L755.88,336.2Zm106.81-86.92c1.08-17.67-4.54-34.7-17-46.59s-29.71-16.41-47.38-14.38c-18.14,2.18-36.59,11.25-51.29,26.73S796.22,209,795.13,227.08c-1.1,17.66,4.53,34.55,17,46.43s29.7,16.57,47.38,14.54c18.14-2.19,36.59-11.25,51.28-26.73,14.7-15.64,22.68-34.56,23.78-52.69Z"/><path class="cls-17" d="M933.52,163.76c9.23,13.13,13.13,29.08,12.2,45.49-1.25,20.64-10.32,42.22-26.91,59.57a96,96,0,0,1-15.31,13.45l1.56-.63-2.66,1.41A95,95,0,0,1,875,296L755.57,353.09l-8-3.44,20.65-20.48,59.57-33.62c-6.1-.15-12.67-3-18.61-7.35l9.39-9.37c11.72,8,26.27,10.94,41,9.22,18.14-2.19,36.59-11.25,51.28-26.73,14.7-15.64,22.68-34.56,23.78-52.69.78-13.29-2.2-26.27-9.08-36.9Z"/><polygon class="cls-18" points="739.15 341.67 753.07 354.81 667.22 445.64 653.46 432.51 739.15 341.67"/><path class="cls-11" d="M652.83,431.88l15,14.23a4.94,4.94,0,0,1,.16,7h0a4.9,4.9,0,0,1-6.88.15l-15-14.21a4.94,4.94,0,0,1-.32-6.89h0a5,5,0,0,1,7-.31Z"/><path class="cls-6" d="M795,231.14l61.15,57.69a39.24,39.24,0,0,1-5.94,0l-54.9-51.75c-.15-2-.31-3.9-.31-5.94Z"/><path class="cls-6" d="M795.75,221.13l70.37,66.45c-1.72.31-3.44.62-5.16.78L795.28,226.3a29.07,29.07,0,0,1,.47-5.17Z"/><path class="cls-6" d="M797.63,212.07,875,285.23c-1.56.47-3.12.94-4.69,1.25l-73.8-69.72c.31-1.56.62-3.13,1.09-4.69Z"/><path class="cls-6" d="M800.29,203.78,883,282.11a33,33,0,0,1-4.06,1.72L798.72,208c.47-1.4.94-2.8,1.57-4.22Z"/><path class="cls-6" d="M803.57,196.28l86.94,82.07c-1.25.63-2.65,1.42-3.91,2l-84.91-80.2c.63-1.41,1.26-2.66,1.88-3.91Z"/><path class="cls-6" d="M807.48,189.09,897.24,274c-1.09.78-2.34,1.56-3.44,2.35l-88.5-83.49c.77-1.25,1.4-2.5,2.18-3.75Z"/><path class="cls-6" d="M812,182.68l91.63,86.45c-1.09.94-2.19,1.88-3.29,2.66L809.52,186c.78-1.1,1.56-2.19,2.5-3.28Z"/><path class="cls-6" d="M816.87,176.58,909.44,264c-1.1.94-2,1.88-3.13,2.82l-92.1-87.09c.93-1.09,1.87-2.18,2.66-3.12Z"/><path class="cls-6" d="M822.34,171l92.26,87.24c-.79,1.09-1.72,2-2.66,3.13l-92.57-87.56c1.09-.93,2-1.87,3-2.81Z"/><path class="cls-6" d="M828.28,165.79l91.16,86.15c-.77,1.09-1.56,2.34-2.49,3.43l-91.8-86.92a26.64,26.64,0,0,1,3.13-2.66Z"/><path class="cls-6" d="M834.69,161.1l89.13,84.26c-.62,1.1-1.4,2.35-2.19,3.61l-90.38-85.52c1.09-.78,2.35-1.57,3.44-2.35Z"/><path class="cls-6" d="M841.57,156.88l86,81.3-1.87,3.75-87.88-82.85c1.25-.79,2.5-1.57,3.75-2.2Z"/><path class="cls-6" d="M849.24,153.29l81.62,77.07c-.63,1.4-1.09,2.82-1.72,4.22l-84-79.42a31.55,31.55,0,0,1,4.07-1.87Z"/><path class="cls-6" d="M857.52,150.31l75.69,71.61a38.14,38.14,0,0,1-1.1,4.54L853,151.72c1.57-.47,3-.93,4.54-1.41Z"/><path class="cls-6" d="M866.59,148.28l68.33,64.42c-.3,1.71-.46,3.28-.77,5l-72.41-68.48a27,27,0,0,1,4.85-.94Z"/><path class="cls-6" d="M877.07,147.34l58.17,54.88V208l-64-60.34a36.12,36.12,0,0,1,5.79-.32Z"/><path class="cls-6" d="M854.55,151.25l-56.76,60a72.19,72.19,0,0,1,3.28-9.38L845.33,155a90.37,90.37,0,0,1,9.22-3.76Z"/><path class="cls-6" d="M868.47,148l-73.19,77.39a54.78,54.78,0,0,1,.94-7l65.37-69.1c2.19-.47,4.53-.94,6.88-1.25Z"/><path class="cls-6" d="M879.89,147.34l-84.61,89.43c-.15-1.87-.31-3.91-.31-5.79l79.12-83.64c1.88,0,3.76-.15,5.8,0Z"/><path class="cls-6" d="M889.58,148.28l-92.73,98.18a48.32,48.32,0,0,1-1.1-5l88.83-93.8a47.76,47.76,0,0,1,5,.62Z"/><path class="cls-6" d="M898.34,150.63,799.51,254.91c-.47-1.41-1.1-2.82-1.57-4.38L893.8,149.22a24.94,24.94,0,0,1,4.54,1.41Z"/><path class="cls-6" d="M905.84,153.91,803.26,262.41a31.31,31.31,0,0,1-2-3.91L901.93,152a17.57,17.57,0,0,1,3.91,1.87Z"/><path class="cls-6" d="M912.72,158.13,807.8,269c-.79-1.09-1.73-2.18-2.5-3.43L909.12,155.79a22.48,22.48,0,0,1,3.6,2.34Z"/><path class="cls-6" d="M918.67,163.13,813.27,274.61c-.31-.32-.63-.48-.78-.78a14.24,14.24,0,0,1-2.19-2.2l105.24-111.3c.78.62,1.56,1.4,2.34,2,.31.32.47.48.79.78Z"/><path class="cls-6" d="M923.82,169.08,819.52,279.45a28.81,28.81,0,0,1-3.44-2.5L921.17,165.79c.94,1.1,1.87,2.19,2.65,3.29Z"/><path class="cls-6" d="M928.2,175.8,826.4,283.36c-1.25-.63-2.5-1.25-3.75-2L926,172.05c.77,1.25,1.4,2.5,2.18,3.75Z"/><path class="cls-6" d="M931.64,183.61,834.38,286.33a23.45,23.45,0,0,1-4.38-1.41l99.92-105.53a26.12,26.12,0,0,1,1.72,4.22Z"/><path class="cls-6" d="M934,192.37l-90.69,96c-1.56-.31-3.28-.63-4.85-.93l94.46-99.9a45.25,45.25,0,0,1,1.08,4.84Z"/><path class="cls-6" d="M935.24,202.53,853.46,289c-1.88,0-3.75,0-5.48-.15l86.79-91.92c.31,1.87.31,3.75.47,5.62Z"/><path class="cls-6" d="M934.62,214.57,865.5,287.73l-6.57.95,76.31-80.83c-.16,2.19-.32,4.38-.62,6.72Z"/><path class="cls-6" d="M931,229.73,880.35,283.2a88.45,88.45,0,0,1-8.44,3l61.61-65c-.62,2.82-1.56,5.63-2.5,8.6Z"/><path class="cls-6" d="M889.74,278.83l37.37-39.72a87.4,87.4,0,0,1-15.64,22.67,95.58,95.58,0,0,1-21.73,17.05Z"/><path class="cls-12" d="M918.19,161.88c13,12.2,18.77,29.55,17.51,47.85-1.08,18-9.22,37.05-23.92,52.52-14.54,15.48-33.15,24.55-51.14,26.73S825,286.48,812,274.29c-12.83-12.19-18.62-29.55-17.36-47.68,1.09-18.13,9.23-37.21,23.77-52.68,14.7-15.48,33.15-24.55,51.13-26.74,18.14-2.19,35.81,2.5,48.63,14.69Zm16.27,47.69c1.24-17.82-4.38-34.87-17-46.74-12.67-12-29.87-16.58-47.7-14.39-17.67,2-36,11.1-50.35,26.42C804.82,190,797,208.79,795.75,226.61c-1.09,17.82,4.54,34.86,17,46.74,12.67,12,30,16.58,47.69,14.54,17.83-2.19,36-11.26,50.51-26.42,14.39-15.32,22.36-34.08,23.46-51.9Z"/><rect class="cls-19" x="723.82" y="348.29" width="26.44" height="19.14" transform="translate(-29.04 648.4) rotate(-46.67)"/><path class="cls-14" d="M745.24,347.45l2.35,2.2a3,3,0,0,1,.16,4.22l-14.08,14.85a3,3,0,0,1-4.22.15l-2.34-2.18a3,3,0,0,1-.16-4.23l14.08-15a3.14,3.14,0,0,1,4.21,0Z"/><path class="cls-15" d="M722.26,365.44h0a1.52,1.52,0,0,1,.16,2.18l-26.9,28.62a1.72,1.72,0,0,1-2.35,0h0a1.68,1.68,0,0,1,0-2.19l26.9-28.46a1.68,1.68,0,0,1,2.19-.15Z"/><path class="cls-15" d="M686.6,403.27h0a1.51,1.51,0,0,1,0,2.19l-9.37,10a1.52,1.52,0,0,1-2.19,0h0a1.67,1.67,0,0,1-.16-2.2l9.54-10a1.49,1.49,0,0,1,2.18,0Z"/></g><g id="Ball"><path class="cls-20" d="M285.21,154A109.59,109.59,0,1,1,175.62,44.39,109.59,109.59,0,0,1,285.21,154Z"/><path class="cls-16" d="M188.24,199.08C150.32,166.33,83.6,174.23,68.37,176.56c.55,2.65,1.21,5.24,2,7.82,15.59-2.22,78.35-8.9,112.68,20.75,14.81,12.8,22.53,31,23,54.13,2.69-.77,5.34-1.63,7.93-2.6C213,232.32,204.33,213,188.24,199.08Z"/><path class="cls-16" d="M277.85,114.49c-1-2.52-2-5-3.19-7.44a63.2,63.2,0,0,1-33.65.79c-32.95-8.26-58.39-41.26-72.1-63.22-3,.18-6,.48-8.94.91,13.7,22.88,41.37,60.62,79.09,70.08A71.2,71.2,0,0,0,277.85,114.49Z"/><path class="cls-21" d="M251.62,75.07c10.46,39.92,26.5,154.21-123.55,177.68A109.58,109.58,0,0,0,251.62,75.07Z"/><path class="cls-20" d="M520,81.2A81.2,81.2,0,1,1,438.8,0,81.19,81.19,0,0,1,520,81.2Z"/><path class="cls-16" d="M448.15,114.6c-28.09-24.26-77.53-18.41-88.81-16.68.41,2,.9,3.88,1.45,5.79,11.56-1.65,58-6.59,83.48,15.38,11,9.48,16.7,23,17.07,40.1,2-.57,4-1.21,5.88-1.92C466.45,139.23,460.06,124.9,448.15,114.6Z"/><path class="cls-16" d="M514.53,51.94c-.72-1.87-1.5-3.72-2.36-5.52a46.84,46.84,0,0,1-24.93.59C462.83,40.89,444,16.44,433.82.17c-2.23.14-4.44.36-6.61.67,10.15,17,30.64,44.91,58.58,51.92A52.72,52.72,0,0,0,514.53,51.94Z"/><path class="cls-21" d="M495.1,22.73C502.85,52.3,514.73,137,403.57,154.37A81.19,81.19,0,0,0,495.1,22.73Z"/><circle class="cls-20" cx="357.6" cy="278.54" r="81.19"/><path class="cls-16" d="M367,311.94c-28.1-24.26-77.53-18.41-88.82-16.68.41,1.95.91,3.88,1.46,5.79,11.56-1.65,58-6.6,83.48,15.38,11,9.48,16.7,23,17.07,40.1q3-.86,5.88-1.93C385.26,336.57,378.87,322.23,367,311.94Z"/><path class="cls-16" d="M433.34,249.28c-.72-1.87-1.5-3.72-2.36-5.52a46.84,46.84,0,0,1-24.93.59c-24.42-6.12-43.26-30.57-53.42-46.84-2.23.13-4.44.36-6.61.67,10.14,16.95,30.64,44.91,58.59,51.92A52.78,52.78,0,0,0,433.34,249.28Z"/><path class="cls-21" d="M413.91,220.07c7.75,29.57,19.63,114.24-91.54,131.64a81.19,81.19,0,0,0,91.54-131.64Z"/></g></g></g></g></g></svg>